# CC0 MakeHuman base mesh arm extract; see SOURCE.json
g body
v 2 5.42046016 0.513365269
v 2.0454 5.433 0.4469
v 2 5.4740583 0.44783931
v 2 5.3284745 0.583285608
v 2.0698 5.2479 0.557
v 2.1812 5.2854 0.4275
v 2.17 5.1371 0.5338
v 2.2697 5.1741 0.4077
v 2.3195 5.075 0.3912
v 2.2211 5.0421 0.5104
v 2.2644 4.965 0.4923
v 2.3698 4.9951 0.3797
v 2.3071 4.882 0.4863
v 2.4234 4.9079 0.3752
v 2.3714 4.7905 0.4964
v 2.4919 4.8083 0.3771
v 2.4517 4.663 0.5009
v 2.556 4.6816 0.3791
v 2 5.23040913 0.593003396
v 2 5.0943588 0.600082633
v 2.0541 5.0016 0.5718
v 2.1009 4.9212 0.554
v 2.1469 4.8432 0.5486
v 2.2096 4.7442 0.5574
v 2.2896 4.6217 0.5677
v 2 4.53454062 0.460539967
v 2.007 4.5364 0.4691
v 2 4.54523401 0.469498698
v 2.0885 5.4436 0.2634
v 2 5.51729992 0.265127929
v 2.2172 5.2975 0.2559
v 2.2975 5.1891 0.249
v 2.3535 5.0911 0.2441
v 2.4127 5.0065 0.2413
v 2.4795 4.9137 0.2457
v 2.531 4.802 0.2457
v 2.5988 4.6789 0.2344
v 2.093 5.4451 0.0744
v 2.0026 5.4596 -0.1072
v 2 5.46230122 -0.106955259
v 2 5.53274717 0.0804056153
v 2 5.45952657 -0.110210427
v 2.226 5.3077 0.0707
v 2.1405 5.3193 -0.1101
v 2.0139 5.3247 -0.2654
v 2 5.33688809 -0.265558166
v 2 5.32380032 -0.273452104
v 2.3047 5.2036 0.0746
v 2.2433 5.2067 -0.1072
v 2.1079 5.2094 -0.2471
v 2 5.2011051 -0.313260086
v 2.3646 5.1093 0.0798
v 2.2995 5.1128 -0.0915
v 2.1763 5.1094 -0.2341
v 2.0219 5.086 -0.3197
v 2 5.1177064 -0.327447911
v 2 5.0801619 -0.327218336
v 2.0049 4.8236 -0.3405
v 2 4.82159017 -0.340960932
v 2 4.83199656 -0.341181669
v 2.4832 4.9195 0.0795
v 2.4009 4.9096 -0.0764
v 2.3498 5.0166 -0.0808
v 2.4186 5.0169 0.0819
v 2.285 4.8919 -0.2028
v 2.2289 5.0065 -0.2159
v 2.1444 4.8641 -0.2903
v 2.0849 4.9743 -0.2983
v 2 4.94662176 -0.328806237
v 2.0921 4.6936 -0.3058
v 2 4.66961038 -0.315026776
v 2.5287 4.8019 0.0791
v 2.464 4.7949 -0.0837
v 2.3477 4.768 -0.2036
v 2.2172 4.7289 -0.274
v 2.3085 4.5791 -0.2659
v 2.1981 4.5377 -0.2997
v 2.101 4.5088 -0.2902
v 2 4.64170817 -0.31283353
v 2.5914 4.675 0.0791
v 2.5332 4.6615 -0.0789
v 2.4268 4.6222 -0.1961
v 2 5.08342289 0.599343449
v 2.0166 4.4814 -0.2831
v 2 4.501029 -0.284859203
v 2.6857 4.5356 0.0864
v 2.6344 4.5162 -0.0674
v 2.5525 4.505 0.5128
v 2.6528 4.5329 0.3895
v 2.1516 4.2989 -0.2804
v 2.2336 4.3326 -0.2861
v 2.5314 4.4748 -0.1864
v 2.4257 4.4518 0.5692
v 2.424 4.4194 -0.2524
v 2.6938 4.5419 0.2334
v 2.3225 4.3691 -0.2932
v 2 4.36013657 0.341427523
v 2.038 4.3124 0.3484
v 2.1552 4.3393 0.4783
v 2 4.2838099 -0.201289409
v 2.0258 4.2562 -0.1957
v 2 4.24053775 -0.166653642
v 2 4.29225542 0.239893976
v 2 4.20502596 -0.143266363
v 2.1342 4.0421 -0.1334
v 2.1194 4.0436 -0.0508
v 2 4.17730669 -0.056507457
v 2.797 4.3884 0.103
v 2.7537 4.3634 -0.0522
v 2.552 4.2606 0.5713
v 2.6692 4.3438 0.5238
v 2.1145 4.0411 0.0465
v 2 4.18797682 0.0487927791
v 2.6624 4.3134 -0.1726
v 2.1586 4.072 0.184
v 2 4.2580244 0.182668719
v 2.5586 4.2543 -0.2484
v 2.7976 4.3978 0.2588
v 2.4646 4.2026 -0.2896
v 2.2313 4.1119 0.355
v 2.3068 4.1609 0.4845
v 2.2969 4.1189 -0.2741
v 2.3802 4.1608 -0.2826
v 2.1768 4.0648 -0.1827
v 2.7627 4.3855 0.4209
v 2.2809 3.8824 -0.0387
v 2.2737 3.8736 0.0611
v 2.8793 4.2161 -0.0235
v 2.7891 4.1676 -0.1473
v 2.3086 3.9066 0.2036
v 2.7035 4.108 -0.2271
v 2.9053 4.2671 0.2902
v 2.9129 4.2469 0.1399
v 2.6144 4.0493 -0.2715
v 2.368 3.9489 0.3558
v 2.4605 3.9737 0.4817
v 2.4553 3.9675 -0.2589
v 2.5365 4.0109 -0.2669
v 2.3353 3.9127 -0.1707
v 2.3019 3.8933 -0.1119
v 2.8751 4.247 0.4415
v 2.7831 4.1759 0.5425
v 2.6851 4.0824 0.5857
v 2.3945 3.7273 0.0682
v 2.4385 3.7492 0.2136
v 2.9157 4.0381 -0.1031
v 2.8469 3.9781 -0.1875
v 3.0057 4.1445 0.3208
v 3.0151 4.1221 0.179
v 2.7683 3.9226 -0.2378
v 2.5092 3.7759 0.3592
v 2.5871 3.8162 0.4856
v 2.6047 3.8381 -0.2357
v 2.6935 3.8775 -0.244
v 2.4623 3.7745 -0.1589
v 2.4293 3.7523 -0.107
v 2.9627 4.1214 0.4593
v 2.8676 4.0442 0.5584
v 2.407 3.7387 -0.038
v 2.9934 4.0928 0.0283
v 2.7749 3.966 0.5855
v 4.5195 1.95 2.9073
v 4.5557 1.9592 2.8993
v 4.5551 1.9733 2.8727
v 4.516 1.9666 2.8845
v 4.6124 1.8692 2.8165
v 4.5952 1.8428 2.7999
v 4.5956 1.855 2.7847
v 4.6123 1.8871 2.8022
v 4.601 1.9381 2.8708
v 4.6241 1.8994 2.8404
v 4.6165 1.9215 2.8228
v 4.6014 1.9569 2.8486
v 4.5762 2.0198 2.7337
v 4.5906 1.9833 2.6977
v 4.5888 2.0018 2.6731
v 4.5745 2.0353 2.7086
v 4.5019 2.0421 2.7663
v 4.5419 2.0376 2.759
v 4.54 2.054 2.7338
v 4.5025 2.0565 2.745
v 4.5878 1.9507 2.6775
v 4.5701 1.9204 2.6615
v 4.5626 1.9102 2.6325
v 4.5796 1.9571 2.6384
v 4.5087 1.8274 3.0339
v 4.5496 1.832 3.0277
v 4.555 1.8778 2.9757
v 4.511 1.8758 2.9815
v 4.5996 1.7572 2.9659
v 4.5807 1.7323 2.9503
v 4.579 1.7736 2.8901
v 4.5986 1.7957 2.9125
v 4.5861 1.8189 3.0136
v 4.6025 1.7902 2.9902
v 4.6047 1.8276 2.9362
v 4.5907 1.863 2.961
v 4.449 1.8797 2.9141
v 4.4462 1.8318 2.9552
v 4.4646 1.8516 2.9726
v 4.4646 1.8938 2.9296
v 4.5964 1.9702 2.8264
v 4.6054 1.9362 2.7977
v 4.4481 1.9324 2.8552
v 4.4503 1.9235 2.87
v 4.4677 1.9447 2.8794
v 4.4661 1.9566 2.8632
v 4.4166 1.991 2.7381
v 4.4232 1.9751 2.7659
v 4.4414 1.9985 2.7835
v 4.4336 2.0131 2.7588
v 4.5521 1.8813 2.7141
v 4.5471 1.901 2.6738
v 4.5762 1.9178 2.6807
v 4.5848 1.9029 2.7176
v 4.5496 1.7147 2.9435
v 4.5521 1.7581 2.8771
v 4.5399 1.9068 2.6522
v 4.5352 1.8945 2.6121
v 4.5563 1.8211 2.7918
v 4.5572 1.8311 2.7748
v 4.4866 1.8664 2.9792
v 4.484 1.9027 2.9408
v 4.4692 2.0157 2.7915
v 4.4633 2.0315 2.7688
v 4.4781 1.9964 2.8216
v 4.4545 1.9812 2.8169
v 4.513 1.9784 2.8638
v 4.551 1.9846 2.8523
v 4.606 1.9071 2.7794
v 4.5935 1.8744 2.7595
v 4.598 1.7062 3.0293
v 4.6004 1.7403 3.0524
v 4.5992 1.7229 3.0682
v 4.5983 1.6829 3.0522
v 4.5863 1.7693 3.0723
v 4.5484 1.7821 3.088
v 4.55 1.7676 3.1006
v 4.5846 1.7541 3.0844
v 4.4768 1.6518 3.1709
v 4.4838 1.6914 3.156
v 4.4715 1.7199 3.1134
v 4.4654 1.6981 3.1188
v 4.4982 1.7752 3.0889
v 4.4785 1.7595 3.0881
v 4.4806 1.7369 3.1118
v 4.5022 1.758 3.1093
v 4.5123 1.7444 3.1277
v 4.4927 1.7156 3.1436
v 4.5074 1.6923 3.174
v 4.5229 1.7287 3.1452
v 4.5186 1.6502 3.2063
v 4.5182 1.6845 3.1803
v 4.5043 1.6539 3.1995
v 4.5749 1.6034 3.1006
v 4.5886 1.6336 3.0824
v 4.5962 1.6295 3.1179
v 4.593 1.5986 3.1435
v 4.5209 1.6317 3.2147
v 4.5064 1.6322 3.2063
v 4.6009 1.6704 3.0814
v 4.5974 1.7113 3.0848
v 4.5938 1.7028 3.0944
v 4.5974 1.6638 3.0993
v 4.5728 1.5883 3.1821
v 4.5514 1.5996 3.2023
v 4.5384 1.5908 3.1998
v 4.5693 1.5798 3.1768
v 4.5814 1.741 3.0979
v 4.5516 1.753 3.1133
v 4.5497 1.7374 3.1249
v 4.5766 1.7278 3.1094
v 4.5712 1.7175 3.1134
v 4.5864 1.6907 3.101
v 4.5437 1.7234 3.1312
v 4.5021 1.794 2.832
v 4.497 1.7528 2.8811
v 4.4583 1.7771 2.8974
v 4.4614 1.8119 2.8523
v 4.4929 1.8396 2.7711
v 4.5021 1.8313 2.7926
v 4.4663 1.8487 2.8186
v 4.4603 1.8552 2.7991
v 4.479 1.9121 2.6572
v 4.4779 1.8945 2.6849
v 4.4397 1.9078 2.7054
v 4.4393 1.9227 2.6818
v 4.4963 1.5881 3.1677
v 4.5406 1.5743 3.1412
v 4.5895 1.6587 3.1111
v 4.5921 1.6293 3.1321
v 4.5932 1.6002 3.1572
v 4.5276 1.7102 3.1519
v 4.5124 1.594 3.0952
v 4.4761 1.6096 3.123
v 4.4706 1.6551 3.0631
v 4.5025 1.6377 3.0426
v 4.4676 1.7428 3.0882
v 4.4593 1.7216 3.0866
v 4.5607 1.6263 3.0564
v 4.5834 1.6518 3.0488
v 4.599 1.7206 3.0102
v 4.6016 1.7537 3.0389
v 4.5867 1.7813 3.0596
v 4.5487 1.7949 3.0741
v 4.4981 1.6777 2.9967
v 4.4699 1.6959 3.0141
v 4.4718 1.7158 2.9937
v 4.5005 1.698 2.9764
v 4.5816 2.008 2.7568
v 4.5873 1.9925 2.7876
v 4.5961 1.9579 2.76
v 4.5935 1.9748 2.7207
v 4.4352 1.9554 2.8062
v 4.5585 1.8475 2.751
v 4.4885 1.9683 2.8648
v 4.5022 2.025 2.7913
v 4.5068 2.0051 2.8179
v 4.5433 2.0077 2.8086
v 4.5425 2.023 2.7828
v 4.5916 1.9514 2.7015
v 4.596 1.9329 2.7397
v 4.488 1.8676 2.7274
v 4.4486 1.8849 2.7521
v 4.598 1.8946 2.9256
v 4.6141 1.8587 2.8891
v 4.6216 1.8792 2.8635
v 4.5999 1.9169 2.8951
v 4.5506 1.6794 2.9878
v 4.5764 1.6959 2.9931
v 4.5773 1.6717 3.0195
v 4.5531 1.6522 3.0185
v 4.6064 1.8321 2.8587
v 4.5897 1.8115 2.8391
v 4.5928 1.8279 2.8169
v 4.6101 1.8493 2.8365
v 4.4577 1.752 3.0486
v 4.4665 1.767 3.059
v 4.4686 1.7837 3.0439
v 4.4595 1.769 3.0327
v 4.4696 1.7942 3.0338
v 4.4812 1.7941 3.0511
v 4.484 1.8056 3.0407
v 4.4496 1.9109 2.8855
v 4.4497 1.8983 2.8988
v 4.4666 1.9136 2.9119
v 4.4664 1.9273 2.8966
v 4.5051 1.8231 2.8056
v 4.5023 1.8089 2.8186
v 4.4625 1.8253 2.8404
v 4.4639 1.8388 2.8304
v 4.558 1.9117 2.9449
v 4.5583 1.9357 2.9213
v 4.5137 1.9114 2.9483
v 4.5175 1.934 2.927
v 4.5516 1.7922 2.8271
v 4.5536 1.809 2.8064
v 4.489 1.9253 2.9198
v 4.4921 1.9407 2.9035
v 4.4971 1.7922 3.0694
v 4.4788 1.7807 3.064
v 4.5021 1.7094 2.9646
v 4.4743 1.7267 2.9812
v 4.4602 1.7798 3.0228
v 4.4914 1.9562 2.8828
v 4.5032 1.8146 3.0471
v 4.5496 1.8175 3.0476
v 4.6004 1.7445 2.9815
v 4.5796 1.72 2.9642
v 4.5871 1.8026 3.034
v 4.603 1.7773 3.0116
v 4.5504 1.7065 2.9553
v 4.4697 1.8057 3.0222
v 4.4855 1.8185 3.028
v 4.4994 1.7158 2.9497
v 4.4717 1.7343 2.9672
v 4.4588 1.7916 3.0118
v 4.4993 1.8029 3.059
v 4.5496 1.8063 3.0628
v 4.5996 1.7328 2.9948
v 4.5771 1.7099 2.9776
v 4.5874 1.7926 3.0483
v 4.6042 1.7656 3.0263
v 4.549 1.6978 2.968
v 4.442 1.8022 2.9244
v 4.4405 1.8446 2.8878
v 4.4463 1.888 2.8484
v 4.4405 1.8944 2.8321
v 4.4195 1.9389 2.741
v 4.4158 1.9545 2.7088
v 4.4798 1.6221 3.1775
v 4.4618 1.6496 3.1257
v 4.5289 1.6199 3.2146
v 4.5176 1.6136 3.2088
v 4.457 1.6828 3.0753
v 4.4288 1.9238 2.7862
v 4.4573 1.7147 3.0307
v 4.4583 1.7381 3.0131
v 4.443 1.8627 2.873
v 4.446 1.8771 2.8619
v 4.4597 1.7523 3.0004
v 4.4556 1.7605 2.986
v 4.525 1.8707 2.7159
v 4.5285 1.8433 2.7581
v 4.5082 1.9027 2.648
v 4.5132 1.8952 2.6726
v 4.5236 1.7038 2.9568
v 4.5235 1.695 2.9685
v 4.5826 1.5815 3.1623
v 4.5631 1.5829 3.1185
v 4.5307 1.828 2.7808
v 4.5295 1.8202 2.7971
v 4.5244 1.7527 2.8727
v 4.5226 1.71 2.9432
v 4.5391 1.6088 3.0699
v 4.5237 1.6389 3.0297
v 4.5287 1.7927 2.8291
v 4.5295 1.8073 2.81
v 4.5853 1.5897 3.1655
v 4.5221 1.6766 2.9866
v 4.5762 1.5988 3.1808
v 4.5568 1.609 3.2023
v 4.5623 1.7127 3.111
v 4.579 1.6872 3.1031
v 4.5364 1.6252 3.2074
v 4.5836 1.6557 3.112
v 4.5254 1.6452 3.2017
v 4.5213 1.6737 3.1776
v 4.5829 1.6272 3.1375
v 4.5834 1.6035 3.1613
v 4.5823 1.5981 3.1691
v 4.528 1.7041 3.1516
v 4.5307 1.6351 3.2083
v 4.5434 1.7148 3.1296
v 4.5615 1.6277 3.1898
v 4.5577 1.6177 3.1926
v 4.5653 1.6535 3.1685
v 4.5668 1.6735 3.1502
v 4.7147 1.7238 2.7735
v 4.7401 1.7265 2.7681
v 4.7401 1.754 2.751
v 4.7105 1.7483 2.7573
v 4.7977 1.6706 2.6759
v 4.7749 1.6412 2.6498
v 4.7705 1.659 2.6306
v 4.7942 1.6923 2.6532
v 4.7836 1.7188 2.7413
v 4.7996 1.6899 2.7065
v 4.7981 1.7185 2.681
v 4.7827 1.7457 2.7193
v 4.7316 1.8883 2.5793
v 4.7519 1.8581 2.5468
v 4.7513 1.8833 2.5084
v 4.7286 1.9068 2.56
v 4.6363 1.878 2.6293
v 4.6818 1.888 2.6125
v 4.6741 1.9232 2.5871
v 4.6005 1.9226 2.5922
v 4.7304 1.8145 2.5215
v 4.7054 1.7841 2.5021
v 4.6834 1.8084 2.4723
v 4.7048 1.8492 2.463
v 4.746 1.5639 2.9004
v 4.7646 1.5643 2.8961
v 4.7545 1.6107 2.8512
v 4.7246 1.6089 2.8586
v 4.8073 1.5089 2.8094
v 4.7928 1.4898 2.7941
v 4.7795 1.5316 2.7483
v 4.795 1.5541 2.7656
v 4.8048 1.5596 2.8647
v 4.8143 1.5336 2.8316
v 4.8044 1.5842 2.7925
v 4.7935 1.6083 2.8225
v 4.6483 1.6195 2.803
v 4.6599 1.5663 2.8388
v 4.6765 1.5891 2.8549
v 4.6692 1.639 2.8183
v 4.7738 1.7705 2.6963
v 4.7892 1.7413 2.6595
v 4.6339 1.7188 2.7212
v 4.6409 1.7046 2.7329
v 4.6589 1.7283 2.7498
v 4.6534 1.7432 2.7371
v 4.558 1.815 2.5889
v 4.5796 1.7865 2.6218
v 4.5939 1.8097 2.6415
v 4.5774 1.8394 2.6152
v 4.7026 1.7049 2.5465
v 4.6898 1.7268 2.5256
v 4.7241 1.7514 2.537
v 4.7334 1.7328 2.5561
v 4.7629 1.4671 2.7827
v 4.7434 1.5082 2.7377
v 4.6689 1.7614 2.489
v 4.6575 1.7778 2.4617
v 4.7457 1.6228 2.6353
v 4.7426 1.6384 2.6212
v 4.7001 1.6046 2.8585
v 4.6902 1.6475 2.8235
v 4.6206 1.8291 2.6586
v 4.5992 1.8578 2.6304
v 4.6377 1.8096 2.6812
v 4.6113 1.7893 2.6721
v 4.7046 1.767 2.7377
v 4.7297 1.7728 2.7284
v 4.7835 1.7095 2.6334
v 4.765 1.6787 2.6141
v 4.8191 1.4454 2.8641
v 4.8246 1.471 2.8867
v 4.8246 1.4502 2.9008
v 4.8265 1.4254 2.8858
v 4.8122 1.4932 2.9152
v 4.7825 1.5045 2.9407
v 4.7853 1.4855 2.9537
v 4.8113 1.474 2.9272
v 4.7398 1.3759 3.0306
v 4.7487 1.4075 3.0236
v 4.7325 1.4424 2.9889
v 4.7132 1.4034 2.9903
v 4.7607 1.5031 2.9501
v 4.7391 1.4912 2.9569
v 4.7494 1.468 2.9794
v 4.7667 1.4831 2.9686
v 4.7707 1.4672 2.9824
v 4.7566 1.445 2.9999
v 4.7733 1.4249 3.0151
v 4.7748 1.451 2.992
v 4.7874 1.3924 3.0343
v 4.7779 1.4197 3.0155
v 4.7767 1.395 3.0352
v 4.8181 1.35 2.9187
v 4.8277 1.3868 2.9049
v 4.8306 1.3794 2.9278
v 4.8331 1.3382 2.9508
v 4.7919 1.37 3.0451
v 4.7823 1.3651 3.0465
v 4.8302 1.4148 2.9014
v 4.8266 1.4427 2.9098
v 4.8244 1.4331 2.9184
v 4.8288 1.4048 2.9154
v 4.8295 1.3277 2.9951
v 4.818 1.3339 3.0208
v 4.8074 1.3213 3.0214
v 4.821 1.3128 2.9902
v 4.813 1.4679 2.9331
v 4.789 1.4762 2.9599
v 4.789 1.4617 2.9679
v 4.8103 1.4568 2.939
v 4.8054 1.4455 2.9435
v 4.8174 1.4268 2.9273
v 4.7862 1.449 2.9698
v 4.679 1.551 2.7168
v 4.6907 1.509 2.7584
v 4.6683 1.5253 2.7849
v 4.6535 1.5691 2.7475
v 4.6626 1.6462 2.6317
v 4.6716 1.6352 2.6443
v 4.6405 1.6557 2.6755
v 4.6328 1.6662 2.6623
v 4.603 1.7532 2.4902
v 4.6207 1.7238 2.5435
v 4.5891 1.7349 2.5708
v 4.5595 1.7666 2.5214
v 4.7614 1.31 3.001
v 4.7846 1.3016 2.9651
v 4.8249 1.4052 2.9245
v 4.8321 1.3744 2.9405
v 4.8355 1.3441 2.9648
v 4.7762 1.4403 2.9924
v 4.7475 1.3359 2.9176
v 4.72 1.34 2.9531
v 4.7027 1.3941 2.9032
v 4.7298 1.3844 2.8741
v 4.7222 1.4773 2.9567
v 4.7025 1.4537 2.9498
v 4.7969 1.3677 2.8888
v 4.8188 1.4002 2.8811
v 4.8153 1.4629 2.8483
v 4.8218 1.4845 2.873
v 4.8103 1.5061 2.906
v 4.7775 1.5176 2.931
v 4.7156 1.419 2.843
v 4.6914 1.4322 2.8688
v 4.6883 1.4521 2.8535
v 4.713 1.4381 2.828
v 4.7396 1.8548 2.6132
v 4.7503 1.8239 2.6418
v 4.7681 1.8001 2.6062
v 4.7596 1.8284 2.5776
v 4.5964 1.7675 2.6574
v 4.7359 1.6535 2.6069
v 4.6769 1.7564 2.7402
v 4.6558 1.8428 2.6589
v 4.6707 1.8219 2.6783
v 4.7056 1.8257 2.6685
v 4.6983 1.8537 2.641
v 4.747 1.79 2.553
v 4.7612 1.7662 2.5751
v 4.636 1.698 2.5693
v 4.5998 1.7149 2.6013
v 4.787 1.6479 2.7922
v 4.7994 1.6258 2.7619
v 4.7974 1.656 2.7366
v 4.7838 1.6774 2.7701
v 4.7711 1.4263 2.8247
v 4.8013 1.4462 2.8321
v 4.8071 1.4257 2.8513
v 4.7795 1.4028 2.8505
v 4.7906 1.599 2.7302
v 4.7752 1.5793 2.7092
v 4.7752 1.6157 2.6776
v 4.7912 1.6334 2.7046
v 4.693 1.4838 2.9236
v 4.7168 1.5039 2.9355
v 4.7099 1.5179 2.9218
v 4.6893 1.4995 2.9095
v 4.7052 1.5309 2.9094
v 4.7296 1.5254 2.9272
v 4.7246 1.5423 2.9131
v 4.6426 1.6918 2.7486
v 4.6425 1.6678 2.7695
v 4.6686 1.6847 2.7897
v 4.6628 1.7127 2.7647
v 4.6698 1.6202 2.6575
v 4.67 1.5954 2.6763
v 4.6406 1.6198 2.7071
v 4.6403 1.6394 2.6893
v 4.7465 1.6565 2.8136
v 4.746 1.6875 2.7898
v 4.7175 1.6548 2.8211
v 4.7173 1.6879 2.7971
v 4.7382 1.5517 2.6979
v 4.7469 1.5961 2.6608
v 4.6908 1.6894 2.7945
v 4.6873 1.7202 2.7726
v 4.7563 1.517 2.9382
v 4.7335 1.5121 2.9388
v 4.7126 1.4537 2.8174
v 4.6886 1.4692 2.8417
v 4.6876 1.5163 2.8951
v 4.6822 1.7394 2.7566
v 4.7482 1.5464 2.915
v 4.7676 1.5468 2.911
v 4.8109 1.4915 2.8234
v 4.7959 1.4746 2.8079
v 4.8099 1.5415 2.8799
v 4.8198 1.5148 2.8459
v 4.7653 1.4547 2.7976
v 4.7017 1.545 2.8982
v 4.7194 1.5569 2.9011
v 4.7127 1.4694 2.8057
v 4.6906 1.4851 2.8304
v 4.6853 1.5304 2.8837
v 4.7544 1.5318 2.9262
v 4.7714 1.529 2.9234
v 4.8135 1.4758 2.8367
v 4.7986 1.4595 2.8208
v 4.8099 1.5212 2.8947
v 4.8202 1.4957 2.8602
v 4.7673 1.4406 2.8104
v 4.658 1.5441 2.8145
v 4.6426 1.595 2.7797
v 4.6355 1.6845 2.7135
v 4.6272 1.6975 2.7018
v 4.5778 1.7658 2.606
v 4.5446 1.7952 2.5542
v 4.7431 1.3432 3.0284
v 4.7083 1.3703 2.9807
v 4.8025 1.3515 3.0385
v 4.79 1.3478 3.0428
v 4.6925 1.4235 2.9327
v 4.5905 1.745 2.6381
v 4.6817 1.4569 2.9014
v 4.6789 1.4765 2.8853
v 4.6332 1.6479 2.7416
v 4.6343 1.6693 2.729
v 4.6793 1.4921 2.8727
v 4.6802 1.5096 2.8608
v 4.673 1.6908 2.5496
v 4.7024 1.6436 2.6114
v 4.638 1.7567 2.4881
v 4.6596 1.7172 2.5278
v 4.7411 1.4502 2.802
v 4.7432 1.4344 2.8137
v 4.8301 1.3221 2.9666
v 4.8068 1.3157 2.9437
v 4.7079 1.6291 2.6267
v 4.7082 1.614 2.64
v 4.7184 1.4969 2.7397
v 4.7392 1.4631 2.7884
v 4.7702 1.3408 2.9049
v 4.7571 1.3896 2.8576
v 4.7102 1.5412 2.6969
v 4.7113 1.5866 2.6612
v 4.8328 1.3323 2.9807
v 4.7467 1.4178 2.8279
v 4.8267 1.3336 2.9973
v 4.8206 1.3431 3.0176
v 4.802 1.4399 2.9464
v 4.8131 1.4248 2.9286
v 4.8076 1.3534 3.0292
v 4.8225 1.4027 2.9304
v 4.7915 1.3821 3.0307
v 4.7839 1.4103 3.0113
v 4.8276 1.3739 2.9507
v 4.8325 1.346 2.9713
v 4.83 1.3362 2.9858
v 4.7795 1.4352 2.991
v 4.7988 1.3687 3.0367
v 4.7854 1.4443 2.9688
v 4.8175 1.366 3.0035
v 4.8199 1.3517 3.012
v 4.8118 1.3927 2.9828
v 4.8069 1.4163 2.9646
v 4.815 1.6766 2.5312
v 4.8535 1.6769 2.5143
v 4.8427 1.6928 2.5041
v 4.8126 1.6903 2.5204
v 4.8836 1.6212 2.4272
v 4.8674 1.6017 2.4105
v 4.8609 1.6209 2.4009
v 4.8746 1.6399 2.4162
v 4.8836 1.6618 2.4814
v 4.8895 1.6388 2.4504
v 4.8799 1.6595 2.4371
v 4.8738 1.6829 2.4692
v 4.8153 1.8043 2.3939
v 4.828 1.7915 2.3573
v 4.8253 1.8174 2.3331
v 4.8076 1.8305 2.3787
v 4.7457 1.7931 2.4506
v 4.7817 1.8029 2.4292
v 4.7653 1.8347 2.4193
v 4.7107 1.8265 2.4273
v 4.8154 1.7648 2.3216
v 4.7827 1.7267 2.2982
v 4.7411 1.7434 2.2661
v 4.8018 1.8164 2.2809
v 4.8633 1.494 2.627
v 4.8845 1.4946 2.6149
v 4.8716 1.5607 2.5761
v 4.8476 1.5621 2.5873
v 4.909 1.454 2.5326
v 4.8984 1.4404 2.5214
v 4.8837 1.4995 2.4828
v 4.8966 1.5143 2.4974
v 4.9163 1.4849 2.577
v 4.9154 1.4689 2.5471
v 4.9046 1.529 2.5135
v 4.9028 1.5513 2.5446
v 4.7575 1.6014 2.5331
v 4.7765 1.5262 2.5791
v 4.7941 1.5416 2.5921
v 4.775 1.6175 2.5493
v 4.8633 1.7021 2.4577
v 4.8706 1.6796 2.4258
v 4.7364 1.6593 2.4954
v 4.7451 1.6456 2.505
v 4.763 1.6653 2.522
v 4.7572 1.682 2.512
v 4.6772 1.7315 2.4367
v 4.6897 1.7151 2.4496
v 4.7097 1.7372 2.4661
v 4.686 1.7467 2.4541
v 4.7956 1.6628 2.3403
v 4.7814 1.6794 2.3235
v 4.8076 1.7067 2.3293
v 4.823 1.6873 2.3519
v 4.873 1.4184 2.512
v 4.8551 1.4778 2.4702
v 4.7537 1.7022 2.2984
v 4.7223 1.7052 2.2682
v 4.8361 1.5813 2.3952
v 4.8336 1.5978 2.3877
v 4.8226 1.5545 2.5955
v 4.8009 1.629 2.5568
v 4.7313 1.7612 2.4715
v 4.7099 1.7707 2.4586
v 4.7514 1.7447 2.4855
v 4.725 1.7251 2.4786
v 4.8053 1.7068 2.5065
v 4.8317 1.7082 2.4905
v 4.8613 1.6624 2.4036
v 4.8501 1.6441 2.3899
v 4.9304 1.3692 2.5873
v 4.9354 1.3872 2.6019
v 4.9413 1.3679 2.6182
v 4.9399 1.3431 2.6076
v 4.9324 1.4097 2.6281
v 4.9078 1.4201 2.6553
v 4.9131 1.3991 2.6688
v 4.9343 1.3917 2.6405
v 4.8689 1.2738 2.7381
v 4.8743 1.3054 2.7427
v 4.8521 1.3434 2.7134
v 4.8396 1.3168 2.7066
v 4.8823 1.4181 2.6739
v 4.857 1.4062 2.6854
v 4.8736 1.3705 2.708
v 4.8915 1.3913 2.6912
v 4.9037 1.3646 2.7085
v 4.8864 1.3336 2.7299
v 4.9113 1.3134 2.7447
v 4.9104 1.3467 2.7177
v 4.9229 1.2722 2.7569
v 4.9202 1.3053 2.7457
v 4.9068 1.2781 2.7589
v 4.9321 1.2569 2.6326
v 4.9414 1.2868 2.6242
v 4.9525 1.2675 2.6476
v 4.9545 1.2372 2.6651
v 4.9261 1.2499 2.7552
v 4.905 1.2526 2.7555
v 4.9457 1.3144 2.6248
v 4.9437 1.349 2.628
v 4.9421 1.3395 2.6352
v 4.9488 1.3027 2.6368
v 4.9542 1.2225 2.7139
v 4.9408 1.228 2.7315
v 4.9218 1.2221 2.7246
v 4.9403 1.2159 2.7026
v 4.9364 1.3757 2.6503
v 4.9173 1.3797 2.6812
v 4.9184 1.3661 2.6879
v 4.9358 1.3631 2.6573
v 4.9324 1.3539 2.6622
v 4.941 1.3318 2.643
v 4.9164 1.3556 2.6909
v 4.7803 1.5528 2.4242
v 4.8028 1.4726 2.4786
v 4.7733 1.4853 2.5107
v 4.7498 1.5644 2.458
v 4.759 1.5985 2.3898
v 4.7672 1.5889 2.3971
v 4.7362 1.5992 2.435
v 4.7285 1.6076 2.4231
v 4.7058 1.6805 2.3222
v 4.7154 1.6615 2.3423
v 4.682 1.673 2.3783
v 4.6693 1.6867 2.3665
v 4.8788 1.2316 2.6985
v 4.8969 1.2234 2.6704
v 4.9538 1.2995 2.6445
v 4.9622 1.264 2.6598
v 4.9627 1.2422 2.6781
v 4.9133 1.3357 2.7193
v 4.8684 1.2595 2.6338
v 4.8436 1.2685 2.6607
v 4.822 1.3244 2.617
v 4.8468 1.3153 2.5911
v 4.8347 1.3888 2.6857
v 4.8197 1.3698 2.6756
v 4.9172 1.2879 2.607
v 4.9339 1.3159 2.6041
v 4.9235 1.3911 2.5689
v 4.932 1.4064 2.5905
v 4.9298 1.4265 2.6177
v 4.9023 1.4382 2.6464
v 4.8398 1.3661 2.5558
v 4.8119 1.3749 2.5817
v 4.8112 1.3975 2.5698
v 4.8361 1.3848 2.5461
v 4.8211 1.783 2.4094
v 4.8328 1.7577 2.4225
v 4.8459 1.7358 2.3916
v 4.8356 1.7657 2.3723
v 4.7022 1.6998 2.4614
v 4.824 1.617 2.3759
v 4.784 1.6984 2.5161
v 4.7596 1.779 2.462
v 4.7762 1.7575 2.4743
v 4.802 1.7605 2.4555
v 4.7876 1.7854 2.4414
v 4.8244 1.7363 2.3424
v 4.8358 1.7061 2.3649
v 4.7282 1.6435 2.3563
v 4.6939 1.6562 2.3894
v 4.8885 1.6169 2.5037
v 4.8916 1.5952 2.4756
v 4.8904 1.618 2.4637
v 4.8856 1.639 2.4925
v 4.8801 1.3669 2.5487
v 4.9096 1.3792 2.5582
v 4.9179 1.3516 2.5775
v 4.8954 1.3348 2.5719
v 4.8839 1.5779 2.455
v 4.8697 1.5627 2.4357
v 4.8699 1.5824 2.4238
v 4.8851 1.5996 2.4423
v 4.8083 1.4055 2.6512
v 4.824 1.4191 2.6662
v 4.8205 1.4374 2.6554
v 4.8055 1.4246 2.6376
v 4.8177 1.4551 2.6456
v 4.8477 1.4477 2.6597
v 4.8453 1.4657 2.6487
v 4.7508 1.6363 2.5118
v 4.7553 1.6195 2.5228
v 4.7724 1.6361 2.5403
v 4.7674 1.6539 2.5292
v 4.7726 1.5811 2.4039
v 4.7794 1.5671 2.4146
v 4.7482 1.5763 2.4511
v 4.7421 1.5928 2.4431
v 4.8601 1.6313 2.5343
v 4.8592 1.655 2.5232
v 4.8262 1.6348 2.5515
v 4.8193 1.6595 2.5412
v 4.8411 1.5499 2.4159
v 4.8381 1.5631 2.4059
v 4.7977 1.6503 2.5463
v 4.7934 1.6675 2.5364
v 4.8776 1.4385 2.6614
v 4.8509 1.4308 2.6702
v 4.8288 1.3981 2.5373
v 4.8062 1.4085 2.5615
v 4.802 1.4425 2.6286
v 4.7899 1.6808 2.5278
v 4.8682 1.4725 2.6406
v 4.8905 1.4731 2.6273
v 4.915 1.4303 2.5463
v 4.9026 1.418 2.5344
v 4.9204 1.4633 2.5936
v 4.922 1.4418 2.5637
v 4.8748 1.3985 2.5263
v 4.8132 1.4785 2.6335
v 4.8409 1.4887 2.6349
v 4.822 1.4128 2.5227
v 4.7965 1.4248 2.5482
v 4.7944 1.4642 2.6191
v 4.8727 1.4544 2.652
v 4.898 1.4543 2.639
v 4.92 1.409 2.5581
v 4.9054 1.398 2.5457
v 4.9267 1.4431 2.6072
v 4.9301 1.4242 2.5791
v 4.8752 1.3833 2.537
v 4.7651 1.504 2.5469
v 4.7448 1.5851 2.5021
v 4.7327 1.6239 2.4778
v 4.723 1.6344 2.4674
v 4.6773 1.6954 2.4216
v 4.6646 1.7093 2.4151
v 4.8689 1.2519 2.7245
v 4.8341 1.2925 2.688
v 4.9299 1.2389 2.7487
v 4.9093 1.2372 2.747
v 4.8117 1.3444 2.6489
v 4.6897 1.678 2.4316
v 4.8006 1.3923 2.6188
v 4.7998 1.4125 2.6063
v 4.7433 1.6 2.4936
v 4.7395 1.6172 2.4847
v 4.7955 1.4254 2.5975
v 4.7854 1.4418 2.5821
v 4.764 1.6463 2.3431
v 4.7929 1.6024 2.3757
v 4.7332 1.6872 2.3085
v 4.7484 1.6653 2.3279
v 4.8532 1.3945 2.528
v 4.8537 1.3814 2.54
v 4.9516 1.221 2.6843
v 4.9109 1.2291 2.6535
v 4.8027 1.5866 2.385
v 4.8027 1.5767 2.392
v 4.8318 1.472 2.469
v 4.852 1.4133 2.5106
v 4.8895 1.2641 2.6203
v 4.8672 1.3171 2.5808
v 4.8099 1.5504 2.4099
v 4.805 1.5639 2.4013
v 4.9611 1.2255 2.6988
v 4.8587 1.3639 2.5495
v 4.9517 1.2337 2.7129
v 4.9437 1.2392 2.7277
v 4.9242 1.3451 2.6642
v 4.938 1.3272 2.6466
v 4.9341 1.2476 2.742
v 4.9516 1.2995 2.6514
v 4.9263 1.278 2.7472
v 4.9217 1.3019 2.7385
v 4.9595 1.2677 2.6682
v 4.9619 1.2485 2.6877
v 4.9579 1.2376 2.7039
v 4.9176 1.3319 2.7152
v 4.9302 1.2592 2.7454
v 4.9145 1.3492 2.6911
v 4.9506 1.2665 2.7181
v 4.9483 1.252 2.7245
v 4.9475 1.2843 2.7074
v 4.9381 1.3111 2.6883
v 4.8341 1.6187 2.2773
v 4.8586 1.6185 2.2524
v 4.8562 1.6405 2.2428
v 4.831 1.641 2.2717
v 4.863 1.5823 2.19
v 4.8379 1.5584 2.1749
v 4.8335 1.5759 2.1641
v 4.8622 1.6036 2.178
v 4.8727 1.6135 2.228
v 4.8729 1.5999 2.204
v 4.8704 1.6195 2.1936
v 4.8698 1.6352 2.2173
v 4.8262 1.7494 2.1665
v 4.8273 1.7297 2.1433
v 4.8147 1.7627 2.1274
v 4.8197 1.7801 2.1525
v 4.7924 1.7579 2.2232
v 4.816 1.7616 2.1897
v 4.8075 1.7909 2.1807
v 4.7838 1.7917 2.2218
v 4.818 1.7021 2.1244
v 4.7941 1.6682 2.1124
v 4.7775 1.689 2.0942
v 4.8059 1.7365 2.1107
v 4.8481 1.5092 2.3158
v 4.8684 1.508 2.2994
v 4.8661 1.5362 2.2851
v 4.8413 1.5384 2.3035
v 4.8749 1.4789 2.2364
v 4.8567 1.4641 2.2199
v 4.8485 1.4949 2.2066
v 4.8682 1.5118 2.2218
v 4.883 1.5047 2.2768
v 4.8836 1.4924 2.2527
v 4.8791 1.5229 2.239
v 4.88 1.5337 2.2634
v 4.7615 1.5407 2.2819
v 4.7684 1.5118 2.2939
v 4.7917 1.5302 2.3115
v 4.784 1.5552 2.3001
v 4.8626 1.6532 2.2107
v 4.8638 1.6353 2.1852
v 4.7438 1.6106 2.2452
v 4.7476 1.594 2.2553
v 4.7702 1.6161 2.2788
v 4.7668 1.6354 2.2728
v 4.7187 1.6899 2.2267
v 4.7179 1.6704 2.2254
v 4.7398 1.6933 2.2512
v 4.74 1.702 2.2517
v 4.7825 1.6129 2.131
v 4.7734 1.6276 2.1228
v 4.8019 1.6476 2.1252
v 4.8101 1.6309 2.1355
v 4.837 1.4521 2.2142
v 4.8264 1.4824 2.2006
v 4.7659 1.6429 2.113
v 4.7472 1.6609 2.099
v 4.8105 1.5418 2.1687
v 4.8041 1.5591 2.1587
v 4.8143 1.5373 2.313
v 4.8091 1.5647 2.3023
v 4.7643 1.7088 2.2503
v 4.7666 1.7264 2.2471
v 4.77 1.6891 2.2569
v 4.7456 1.6726 2.2547
v 4.8255 1.6603 2.261
v 4.8478 1.659 2.235
v 4.8569 1.6194 2.1703
v 4.8287 1.5936 2.154
v 4.8847 1.3977 2.2657
v 4.8928 1.4117 2.2833
v 4.8927 1.3886 2.2942
v 4.8868 1.3674 2.2768
v 4.8914 1.4271 2.308
v 4.8785 1.4351 2.3325
v 4.88 1.4175 2.344
v 4.8916 1.405 2.317
v 4.8376 1.3347 2.3845
v 4.8424 1.3596 2.3837
v 4.8282 1.3867 2.3697
v 4.8123 1.3586 2.3643
v 4.8593 1.4399 2.3487
v 4.8359 1.4312 2.3543
v 4.842 1.4042 2.3657
v 4.8589 1.4166 2.3575
v 4.8628 1.3949 2.3634
v 4.8492 1.3796 2.3761
v 4.8624 1.3633 2.3823
v 4.8681 1.381 2.368
v 4.8705 1.3404 2.3898
v 4.8717 1.358 2.3821
v 4.8615 1.3431 2.3905
v 4.8786 1.3097 2.2993
v 4.8838 1.3281 2.2941
v 4.8903 1.3191 2.3092
v 4.8895 1.3029 2.3155
v 4.8732 1.3214 2.3887
v 4.8631 1.3224 2.3891
v 4.887 1.3513 2.2944
v 4.8888 1.3713 2.3044
v 4.8892 1.3612 2.3116
v 4.8898 1.3418 2.3058
v 4.8955 1.2921 2.3448
v 4.8896 1.2953 2.3666
v 4.8807 1.2898 2.3661
v 4.887 1.2863 2.3412
v 4.8861 1.3881 2.3236
v 4.8765 1.398 2.3467
v 4.8772 1.3861 2.3507
v 4.8855 1.3777 2.3287
v 4.8855 1.3721 2.3318
v 4.8902 1.358 2.3134
v 4.8779 1.3793 2.3526
v 4.7719 1.5101 2.2081
v 4.7816 1.4791 2.2188
v 4.7671 1.4876 2.2398
v 4.7589 1.5164 2.2287
v 4.7487 1.5764 2.1793
v 4.7539 1.5599 2.1868
v 4.7429 1.5684 2.2074
v 4.7384 1.5855 2.1999
v 4.7176 1.6377 2.1515
v 4.7239 1.6268 2.1569
v 4.7155 1.639 2.1815
v 4.7089 1.6525 2.1782
v 4.845 1.2853 2.3551
v 4.858 1.2794 2.3275
v 4.8922 1.3389 2.3124
v 4.8959 1.32 2.316
v 4.8955 1.3056 2.3226
v 4.8718 1.3736 2.3687
v 4.8245 1.3071 2.3036
v 4.8061 1.3152 2.3281
v 4.7901 1.3714 2.2972
v 4.8068 1.363 2.272
v 4.817 1.4202 2.3546
v 4.7947 1.4 2.3424
v 4.8675 1.3318 2.2784
v 4.8785 1.349 2.2749
v 4.8843 1.4319 2.2558
v 4.8913 1.4406 2.2721
v 4.89 1.455 2.2969
v 4.8757 1.4607 2.3192
v 4.7984 1.4029 2.2511
v 4.7822 1.4111 2.2775
v 4.7816 1.4272 2.2697
v 4.7973 1.4175 2.2454
v 4.8338 1.7191 2.1796
v 4.8432 1.6928 2.1914
v 4.8427 1.674 2.1664
v 4.8369 1.7002 2.1564
v 4.7243 1.6463 2.2286
v 4.7993 1.5756 2.1497
v 4.7917 1.6523 2.2778
v 4.8012 1.7263 2.2313
v 4.8099 1.7011 2.2396
v 4.8309 1.6996 2.2148
v 4.8219 1.7284 2.2038
v 4.8264 1.6752 2.1384
v 4.8319 1.6547 2.1475
v 4.7328 1.6124 2.1619
v 4.724 1.6219 2.1837
v 4.8754 1.5657 2.2514
v 4.8748 1.5495 2.2257
v 4.8733 1.5773 2.2165
v 4.8736 1.5899 2.2397
v 4.8469 1.4083 2.2341
v 4.8664 1.4158 2.2401
v 4.8705 1.3859 2.2545
v 4.8522 1.3749 2.2521
v 4.8635 1.5372 2.2096
v 4.8426 1.5213 2.1937
v 4.8409 1.5417 2.1844
v 4.8614 1.5624 2.1984
v 4.7881 1.4365 2.3276
v 4.8104 1.4506 2.3419
v 4.8087 1.4678 2.3351
v 4.7884 1.4541 2.321
v 4.8061 1.4828 2.3284
v 4.8288 1.4748 2.3364
v 4.8253 1.4896 2.3308
v 4.7525 1.5793 2.2653
v 4.7558 1.5628 2.2719
v 4.7789 1.5785 2.2919
v 4.7748 1.597 2.2856
v 4.759 1.5427 2.1953
v 4.7649 1.5271 2.2019
v 4.7534 1.5335 2.2228
v 4.7481 1.55 2.2154
v 4.8618 1.568 2.2722
v 4.8591 1.5944 2.262
v 4.837 1.5683 2.2921
v 4.8345 1.593 2.2841
v 4.8167 1.5094 2.1875
v 4.814 1.5273 2.1774
v 4.8038 1.5886 2.2957
v 4.8004 1.6098 2.2905
v 4.8578 1.4615 2.3356
v 4.8313 1.4583 2.3432
v 4.7967 1.4342 2.2393
v 4.7823 1.4412 2.2629
v 4.7862 1.4682 2.3115
v 4.7964 1.6318 2.2851
v 4.8513 1.4946 2.3224
v 4.871 1.4944 2.3051
v 4.8791 1.4624 2.2422
v 4.8601 1.4492 2.2257
v 4.8855 1.4922 2.2824
v 4.8871 1.4781 2.2586
v 4.8396 1.4398 2.2197
v 4.7999 1.4992 2.3227
v 4.8212 1.5054 2.3258
v 4.7932 1.4481 2.235
v 4.7802 1.4561 2.2569
v 4.7813 1.4828 2.3048
v 4.8549 1.4793 2.3284
v 4.8744 1.4791 2.3121
v 4.8836 1.4491 2.2497
v 4.8639 1.434 2.2319
v 4.889 1.4756 2.2885
v 4.8905 1.4625 2.2636
v 4.843 1.4228 2.2271
v 4.761 1.4988 2.2666
v 4.7542 1.5249 2.2521
v 4.74 1.5782 2.229
v 4.7367 1.596 2.2218
v 4.7146 1.6535 2.2042
v 4.7079 1.6716 2.2041
v 4.834 1.3052 2.3776
v 4.8017 1.3338 2.3508
v 4.8798 1.3087 2.3839
v 4.8693 1.3036 2.383
v 4.7873 1.3841 2.3226
v 4.7227 1.634 2.2062
v 4.7798 1.4247 2.3063
v 4.779 1.4401 2.2978
v 4.7488 1.5448 2.2454
v 4.7444 1.5609 2.2383
v 4.7787 1.4524 2.2885
v 4.7759 1.4671 2.2805
v 4.7476 1.6033 2.1391
v 4.7694 1.5705 2.1587
v 4.737 1.6333 2.1255
v 4.7433 1.6187 2.133
v 4.8176 1.4327 2.2243
v 4.8212 1.4178 2.2296
v 4.8877 1.293 2.3247
v 4.8717 1.2964 2.3098
v 4.776 1.5541 2.1669
v 4.7825 1.5379 2.1757
v 4.8024 1.4763 2.2055
v 4.8135 1.4466 2.2181
v 4.8516 1.3211 2.2896
v 4.8335 1.3666 2.256
v 4.7933 1.5053 2.1937
v 4.7877 1.5231 2.1841
v 4.8949 1.2969 2.3308
v 4.8245 1.4032 2.236
v 4.8978 1.2996 2.3465
v 4.8947 1.3048 2.3654
v 4.8847 1.3671 2.3331
v 4.8881 1.353 2.3168
v 4.8848 1.3147 2.3798
v 4.8914 1.3383 2.3157
v 4.8769 1.3348 2.3844
v 4.8718 1.3527 2.3789
v 4.8942 1.3205 2.3213
v 4.8954 1.3108 2.3274
v 4.8974 1.3039 2.3352
v 4.8715 1.3666 2.3668
v 4.881 1.3243 2.3843
v 4.8765 1.3742 2.3537
v 4.8912 1.3245 2.355
v 4.8929 1.3172 2.3581
v 4.8882 1.3373 2.35
v 4.8848 1.3543 2.3419
v 3.9049 2.1185 2.6611
v 3.9153 2.1595 2.6862
v 3.9218 2.1751 2.6635
v 3.9118 2.1358 2.6379
v 4.0172 2.1586 2.7183
v 4.0696 2.1159 2.7164
v 4.0829 2.128 2.6982
v 4.0239 2.1768 2.6968
v 3.9569 2.1818 2.7126
v 3.9627 2.1976 2.6885
v 3.9713 2.0806 2.5761
v 3.9605 2.0588 2.6073
v 3.9216 2.0971 2.6181
v 3.9308 2.1162 2.5905
v 4.0765 2.0843 2.6927
v 4.0823 2.0967 2.6674
v 3.9204 2.1537 2.6102
v 4.0419 2.0862 2.7871
v 3.9964 2.1186 2.7718
v 3.9888 2.111 2.7859
v 4.0289 2.0813 2.8106
v 3.9481 2.1311 2.7539
v 3.9097 2.1104 2.7343
v 3.9065 2.0978 2.747
v 3.9445 2.1201 2.7637
v 3.8936 1.9675 2.8148
v 3.862 2.0021 2.7831
v 3.8736 2.0084 2.7484
v 3.9117 1.9716 2.7697
v 3.8829 2.0677 2.725
v 3.8766 2.0549 2.747
v 3.903 2.0864 2.7592
v 3.869 2.0436 2.7708
v 3.8669 2.0342 2.7921
v 3.9 2.0782 2.7709
v 3.857 2.0121 2.8497
v 3.869 2.036 2.8078
v 3.8547 1.9997 2.8191
v 4.0148 2.0401 2.8445
v 4.0148 2.0787 2.8302
v 3.9988 2.0783 2.8466
v 3.9931 2.0394 2.8713
v 3.8726 1.9996 2.8744
v 3.8815 1.9753 2.8512
v 3.9814 2.1052 2.7982
v 3.9745 2.101 2.8093
v 3.9505 2.0183 2.9037
v 3.9148 2.0013 2.8978
v 3.9328 1.9815 2.8756
v 3.9702 2.0071 2.8797
v 3.9411 2.1108 2.7721
v 3.9384 2.1031 2.7803
v 3.9367 2.0941 2.7869
v 3.9687 2.0958 2.8216
v 3.8982 2.0741 2.7791
v 4.0803 2.0884 2.6147
v 4.072 2.0794 2.6517
v 4.0255 2.0544 2.6191
v 4.0355 2.0696 2.5865
v 3.9475 1.9736 2.8419
v 3.9931 2.0069 2.8482
v 3.9794 2.0817 2.8556
v 3.967 2.0446 2.8923
v 4.0126 2.0115 2.8088
v 3.9683 1.9766 2.7907
v 3.9869 1.9911 2.7447
v 4.0299 2.0215 2.7654
v 3.888 2.0231 2.7202
v 3.9285 1.9859 2.7222
v 4.0311 2.0431 2.8151
v 4.0513 2.0925 2.7677
v 4.0031 2.1275 2.7607
v 3.9507 2.1432 2.7464
v 3.9118 2.1227 2.7237
v 4.0447 2.0345 2.7259
v 4.0046 2.0104 2.694
v 4.0097 2.016 2.679
v 4.0524 2.0424 2.7037
v 4.0603 2.0588 2.7488
v 4.0469 2.0491 2.7796
v 3.9431 2.0028 2.6813
v 3.8971 2.0393 2.693
v 3.9033 2.0512 2.675
v 3.9479 2.0118 2.6636
v 3.9078 2.062 2.6614
v 3.8951 2.0922 2.6919
v 3.8995 2.1034 2.6791
v 4.095 2.1485 2.6642
v 4.0349 2.1944 2.6671
v 3.8896 2.0813 2.7064
v 4.0567 2.0492 2.6883
v 4.0131 2.0234 2.6599
v 3.932 2.1919 2.6316
v 3.9741 2.2132 2.66
v 4.0974 2.1146 2.6361
v 3.9513 2.0197 2.6501
v 3.9128 2.145 2.702
v 4.0123 2.146 2.7361
v 4.0648 2.105 2.7348
v 3.953 2.1679 2.7279
v 4.0733 2.0745 2.7116
v 3.9143 2.0771 2.6423
v 4.0604 2.0593 2.6722
v 4.0169 2.0327 2.6451
v 3.9569 2.034 2.6326
v 3.9145 2.1328 2.7126
v 4.0083 2.136 2.7474
v 4.0591 2.0991 2.7503
v 3.9535 2.1531 2.7362
v 4.0687 2.0674 2.7277
v 3.9439 2.0348 2.896
v 3.9084 2.0215 2.8893
v 3.9365 2.0874 2.792
v 3.9697 2.0923 2.8212
v 3.8794 2.0137 2.8748
v 3.9709 2.0744 2.8518
v 3.868 2.0166 2.8545
v 3.8738 2.0376 2.8163
v 3.9553 2.0504 2.8865
v 3.899 2.0703 2.7802
v 3.9085 2.0386 2.8772
v 3.9152 2.0616 2.8445
v 4.4587 2.0499 2.7433
v 4.5743 1.8934 2.6083
v 4.6983 1.7969 2.4417
v 4.7499 1.7452 2.2397
v 4.8159 1.8617 2.2983
v 4.8008 1.8711 2.351
v 4.5944 1.777 2.4426
v 4.5316 1.7837 2.4896
v 4.5051 1.8137 2.4455
v 4.5464 1.7993 2.4046
v 4.8016 1.8161 2.1348
v 4.7849 1.8347 2.1726
v 4.6951 1.6736 2.1144
v 4.7248 1.6839 2.082
v 4.7222 1.6505 2.1158
v 4.5331 2.0792 2.7123
v 4.5044 2.0753 2.7176
v 4.4047 2.0052 2.6448
v 4.4195 1.9701 2.6431
v 4.4137 1.963 2.68
v 4.4132 2.0006 2.7059
v 4.799 1.7943 2.1006
v 4.7875 1.7688 2.0914
v 4.7073 1.6532 2.1466
v 4.6982 1.6694 2.1699
v 4.685 1.6855 2.1538
v 4.6956 1.669 2.1392
v 4.6611 1.7063 2.2677
v 4.64 1.7202 2.3344
v 4.6149 1.7359 2.3035
v 4.6482 1.7121 2.2506
v 4.4545 2.0664 2.72
v 4.4759 1.8545 2.497
v 4.4978 1.8487 2.5325
v 4.725 1.9435 2.5248
v 4.6748 1.9642 2.5577
v 4.4262 1.947 2.6169
v 4.437 1.9396 2.6364
v 4.672 1.7065 2.195
v 4.6919 1.7055 2.2118
v 4.4249 2.0264 2.7309
v 4.4158 2.0428 2.7048
v 4.5863 1.7639 2.3486
v 4.6366 1.7561 2.3966
v 4.7439 1.9268 2.4746
v 4.5718 2.0579 2.6797
v 4.7605 1.7114 2.0745
v 4.4681 1.9003 2.5865
v 4.4506 1.9124 2.5601
v 4.7519 1.8797 2.3914
v 4.5945 2.0231 2.6399
v 4.5576 1.7834 2.3082
v 4.5909 1.7615 2.2642
v 4.5236 1.826 2.3666
v 4.493 1.8471 2.4148
v 4.4655 1.8864 2.3823
v 4.5055 1.8594 2.3301
v 4.6487 1.7058 2.1592
v 4.6796 1.6861 2.1164
v 4.7437 1.75 2.0529
v 4.6912 1.7009 2.0707
v 4.6773 1.7264 2.0428
v 4.7219 1.7897 2.0216
v 4.4576 1.8818 2.4691
v 4.624 1.7357 2.2186
v 4.5674 1.7784 2.2282
v 4.5993 1.7412 2.1754
v 4.429 1.9251 2.5337
v 4.4029 1.9643 2.5887
v 4.3818 1.9859 2.5582
v 4.3986 1.9474 2.4978
v 4.3714 1.98 2.4656
v 4.411 1.9499 2.4057
v 4.4331 1.9129 2.4331
v 4.5721 1.7584 2.1341
v 4.617 1.7186 2.0814
v 4.6334 1.7082 2.1124
v 4.7907 1.8545 2.2526
v 4.3556 2.0199 2.5375
v 4.3137 2.0573 2.4993
v 4.338 2.0365 2.4255
v 4.4536 1.9233 2.3502
v 4.4899 1.8992 2.2957
v 4.4649 2.1644 2.5985
v 4.4034 2.1374 2.6161
v 4.4277 2.0952 2.6703
v 4.5048 2.1172 2.6595
v 4.7252 1.8913 2.3982
v 4.5387 1.8008 2.0814
v 4.5439 1.8138 2.1806
v 4.5152 1.8644 2.1499
v 4.3858 2.0059 2.3626
v 4.4278 1.9798 2.3128
v 4.4685 1.9492 2.264
v 4.7208 1.9393 2.0263
v 4.7139 1.9721 2.0746
v 4.7334 1.9341 2.1175
v 4.7404 1.9068 2.0609
v 4.6798 2.0593 2.4159
v 4.6859 2.0122 2.3644
v 4.6639 2.0808 2.2904
v 4.6497 2.1271 2.3408
v 4.7346 1.8455 2.0269
v 4.7122 1.8815 1.9928
v 4.7037 1.9903 2.3001
v 4.684 2.0497 2.2347
v 4.714 2.035 2.1792
v 4.7341 1.9895 2.2403
v 4.6467 1.9877 1.8794
v 4.5996 2.0533 1.7952
v 4.607 2.0985 1.8333
v 4.6609 2.0278 1.9174
v 4.7135 2.0022 2.1246
v 4.7405 1.958 2.178
v 4.6054 2.1711 1.8851
v 4.6589 2.0815 1.9684
v 4.6045 2.1531 2.3905
v 4.6252 2.0809 2.4586
v 4.5084 2.3132 2.1991
v 4.4502 2.3562 2.2437
v 4.5012 2.2692 2.3402
v 4.5551 2.2311 2.2934
v 4.5598 2.2833 2.1543
v 4.59 2.2479 2.1113
v 4.5443 2.3302 2.0233
v 4.5122 2.3638 2.0641
v 4.6368 2.176 2.0335
v 4.6137 2.2107 2.0723
v 4.6534 2.1245 2.1575
v 4.6808 2.097 2.1117
v 4.3628 2.4013 2.2809
v 4.4269 2.3132 2.3819
v 4.5841 2.1118 2.5068
v 4.5959 2.0546 2.5765
v 4.6392 2.0213 2.5161
v 4.7308 1.9211 2.4356
v 4.5676 2.2942 1.9854
v 4.6477 2.1302 1.9978
v 4.6858 2.0555 2.0686
v 4.605 2.2027 2.2487
v 4.7181 1.9698 2.4119
v 4.7152 1.9437 2.353
v 4.5422 2.1598 2.5648
v 4.563 2.1237 2.6035
v 4.754 1.8899 2.0922
v 4.7522 1.8969 2.1526
v 4.5543 2.185 2.4382
v 4.7691 1.9123 2.2243
v 4.4967 1.8872 2.5977
v 4.6321 1.7766 2.4546
v 4.5164 1.8558 2.5706
v 4.5495 1.8762 2.5921
v 4.6969 1.7026 2.2746
v 4.653 1.7616 2.4245
v 4.6717 1.7736 2.4467
v 4.709 1.7091 2.2273
v 4.7293 1.7119 2.2475
v 2.4981 3.6023 0.0753
v 2.5367 3.6164 0.2226
v 3.0317 3.9211 -0.065
v 2.9762 3.8589 -0.1544
v 3.0903 4.0281 0.3437
v 3.1021 4.009 0.2078
v 2.91 3.8045 -0.1981
v 2.6108 3.6413 0.3576
v 2.6865 3.6914 0.4766
v 2.8368 3.7624 -0.2199
v 2.7443 3.7259 -0.2231
v 2.5877 3.663 -0.1478
v 2.5482 3.6372 -0.1001
v 3.0445 4.0031 0.4665
v 2.9598 3.9399 0.5525
v 2.5146 3.6188 -0.0302
v 3.0869 3.9744 0.0634
v 2.8646 3.8635 0.5727
v 3.0387 3.6867 -0.1622
v 2.9752 3.6389 -0.1909
v 2.6104 3.5239 0.2268
v 2.6788 3.5548 0.3556
v 2.7094 3.5659 -0.1528
v 2.6615 3.5447 -0.1011
v 3.1204 3.9151 0.4805
v 3.1707 3.9361 0.3663
v 3.0363 3.8576 0.5577
v 2.6146 3.5271 -0.03
v 3.1907 3.9129 0.2308
v 3.1907 3.8703 0.0895
v 2.9436 3.7792 0.5747
v 2.5882 3.5123 0.0776
v 3.1454 3.808 -0.0378
v 3.0963 3.7429 -0.1204
v 2.7599 3.6069 0.4664
v 2.8861 3.6053 -0.1892
v 2.8128 3.4863 -0.1368
v 2.7511 3.4694 -0.0959
v 3.1784 3.8521 0.4967
v 3.2346 3.8694 0.3931
v 3.0924 3.7987 0.5659
v 2.6966 3.4581 -0.0231
v 3.2602 3.842 0.2597
v 3.265 3.795 0.1204
v 3.0038 3.716 0.5793
v 2.6608 3.4504 0.0878
v 3.2275 3.7248 -0.0021
v 2.6693 3.4619 0.2371
v 3.1858 3.6535 -0.0825
v 3.135 3.5937 -0.1301
v 2.73 3.4949 0.3649
v 2.8156 3.5459 0.4632
v 3.0754 3.5441 -0.1675
v 2.9846 3.515 -0.1585
v 2.8364 3.3977 -0.0745
v 2.7807 3.3884 0.0006
v 3.3232 3.7824 0.2955
v 3.3266 3.7303 0.1568
v 3.0573 3.6646 0.5885
v 3.1455 3.7444 0.5788
v 2.7368 3.3883 0.1083
v 3.3005 3.6521 0.0434
v 2.7295 3.4004 0.2542
v 3.264 3.5765 -0.0352
v 3.2937 3.8123 0.4265
v 3.2144 3.5152 -0.0886
v 2.7809 3.437 0.3778
v 2.8681 3.4929 0.4713
v 3.153 3.4653 -0.1395
v 3.07 3.4338 -0.1298
v 2.9062 3.4047 -0.1048
v 3.2318 3.7979 0.5211
v 3.0171 3.3069 -0.0286
v 2.947 3.2988 -0.0012
v 3.2888 3.7456 0.5537
v 3.3511 3.7606 0.4604
v 3.2005 3.6997 0.6086
v 2.8805 3.2999 0.0579
v 3.3842 3.7267 0.3346
v 3.393 3.6629 0.2071
v 3.1084 3.624 0.6091
v 2.8282 3.3079 0.1478
v 3.3775 3.5802 0.1048
v 2.8076 3.321 0.2828
v 3.3438 3.5008 0.0334
v 3.2981 3.4326 -0.0185
v 2.8468 3.3662 0.4002
v 2.9206 3.4397 0.4959
v 3.2411 3.3745 -0.0696
v 3.1658 3.344 -0.0578
v 3.0491 3.2045 0.1241
v 2.9806 3.2064 0.1652
v 3.4773 3.6478 0.4113
v 3.4985 3.5724 0.298
v 3.1586 3.5983 0.6565
v 3.2656 3.6567 0.6512
v 2.9256 3.2113 0.2374
v 3.4877 3.4871 0.1955
v 2.8909 3.2274 0.3418
v 3.4504 3.4012 0.1319
v 3.4334 3.6926 0.5167
v 3.4023 3.3295 0.0846
v 2.9084 3.2916 0.4568
v 2.9628 3.3892 0.5528
v 3.3405 3.27 0.0485
v 3.2661 3.2479 0.0577
v 3.1181 3.2136 0.088
v 3.3621 3.6866 0.6026
v 3.0808 3.0869 0.332
v 3.0214 3.1015 0.3933
v 3.6247 3.4523 0.4205
v 3.618 3.3587 0.3286
v 2.9677 3.1301 0.4742
v 3.5799 3.2706 0.2745
v 3.5343 3.5967 0.6027
v 3.5945 3.5377 0.5163
v 3.5286 3.2017 0.2304
v 2.9737 3.2123 0.5762
v 3.0208 3.3173 0.6663
v 3.4597 3.1522 0.2103
v 3.3841 3.1228 0.2026
v 3.226 3.085 0.2449
v 3.1495 3.0798 0.2841
v 3.4482 3.6092 0.6797
v 3.3401 3.6101 0.7241
v 3.2324 3.5541 0.7432
v 3.1655 2.9621 0.6178
v 3.1154 2.9937 0.6959
v 3.7691 3.1991 0.5183
v 3.7351 3.1184 0.4604
v 3.6621 3.4499 0.7587
v 3.7272 3.3854 0.6869
v 3.6808 3.0508 0.4207
v 3.1176 3.069 0.7761
v 3.1564 3.1721 0.8447
v 3.5963 3.0102 0.4114
v 3.5206 2.975 0.4129
v 3.3638 2.9341 0.4522
v 3.2906 2.9324 0.4948
v 3.5693 3.4744 0.8229
v 3.4608 3.4703 0.8676
v 3.226 2.9387 0.5423
v 3.7603 3.3009 0.6034
v 3.357 3.4144 0.8876
v 3.82 3.2555 0.9643
v 3.8846 3.2014 0.9002
v 3.8879 2.9677 0.6943
v 3.8445 2.8948 0.6449
v 3.313 2.9358 0.986
v 3.349 3.0264 1.0392
v 3.7529 2.8597 0.6425
v 3.6774 2.8309 0.6508
v 3.3156 2.8687 0.9137
v 3.5259 2.7845 0.688
v 3.456 2.7885 0.7309
v 3.7246 3.2809 1.0146
v 3.6256 3.2704 1.0456
v 3.3966 2.8015 0.7772
v 3.9146 3.1317 0.8251
v 3.5319 3.2199 1.0586
v 3.3486 2.8299 0.8459
v 3.9165 3.0461 0.7539
v 3.9514 2.7173 0.8804
v 3.8669 2.6845 0.8942
v 4.012 2.7658 0.8968
v 3.5141 2.7457 1.1399
v 3.5096 2.8069 1.203
v 3.7187 2.6311 0.9441
v 3.6439 2.6401 0.9737
v 3.8898 3.078 1.2402
v 3.9721 3.0653 1.1956
v 3.795 3.0751 1.2697
v 3.5852 2.6696 1.0224
v 4.0336 3.0276 1.1347
v 4.0698 2.9691 1.0612
v 3.7083 3.0334 1.2724
v 3.5341 2.6979 1.0835
v 4.0726 2.8961 0.9953
v 4.0504 2.8259 0.9305
v 3.5394 2.88 1.2479
v 3.8896 2.517 1.1515
v 3.8189 2.5248 1.18
v 4.0084 2.9297 1.4069
v 4.0805 2.9118 1.3632
v 3.9285 2.926 1.4359
v 3.7586 2.5528 1.224
v 4.1382 2.8774 1.3088
v 4.1724 2.8358 1.2524
v 3.8551 2.8909 1.4538
v 3.7117 2.5895 1.2764
v 4.1835 2.7855 1.2006
v 3.6889 2.642 1.3345
v 4.176 2.7317 1.1551
v 4.1522 2.6759 1.1234
v 3.6878 2.7001 1.3879
v 3.7157 2.7649 1.4284
v 4.1174 2.6163 1.1142
v 4.0465 2.57 1.1152
v 3.9557 2.4296 1.344
v 3.8991 2.4592 1.3902
v 4.2133 2.7586 1.4665
v 4.2486 2.7274 1.4181
v 3.9767 2.7816 1.6078
v 4.0383 2.805 1.5811
v 3.8562 2.5025 1.4436
v 4.269 2.6889 1.3716
v 3.837 2.5597 1.5001
v 4.2745 2.6456 1.3318
v 4.1646 2.7851 1.5119
v 4.2615 2.5967 1.3014
v 3.8384 2.6159 1.5468
v 3.8604 2.6731 1.5855
v 4.2263 2.5419 1.2826
v 4.1788 2.4856 1.2839
v 4.0227 2.4232 1.3127
v 4.1041 2.8042 1.5517
v 3.9992 2.3932 1.5189
v 3.9682 2.447 1.5738
v 4.3046 2.6423 1.5421
v 4.3291 2.6089 1.4995
v 3.9572 2.5083 1.6252
v 4.3418 2.571 1.4632
v 4.2261 2.6903 1.6275
v 4.271 2.6668 1.5858
v 4.3368 2.5264 1.4341
v 3.9581 2.5615 1.6641
v 3.974 2.6092 1.6997
v 4.3088 2.4748 1.4135
v 4.2671 2.4215 1.4091
v 4.1143 2.3463 1.4372
v 4.048 2.3562 1.4706
v 4.1772 2.7062 1.6643
v 4.1231 2.7093 1.6946
v 4.0647 2.6936 1.7232
v 4.0388 2.4051 1.6649
v 4.032 2.462 1.7118
v 4.379 2.5307 1.5984
v 4.3906 2.4938 1.5647
v 4.2868 2.6175 1.7207
v 4.3223 2.5953 1.6831
v 4.3874 2.4542 1.5371
v 4.0365 2.5112 1.7459
v 4.0556 2.5532 1.778
v 4.3673 2.4093 1.5137
v 4.337 2.3636 1.5042
v 4.1801 2.2934 1.5256
v 4.1108 2.3087 1.5597
v 4.2428 2.6359 1.7572
v 4.1933 2.6416 1.7878
v 4.0643 2.3498 1.6098
v 4.3549 2.5664 1.6398
v 4.1451 2.6286 1.8127
v 4.3379 2.5634 1.7934
v 4.37 2.5361 1.7567
v 4.4276 2.428 1.6439
v 4.4265 2.3915 1.6152
v 4.0992 2.5109 1.8382
v 4.0809 2.4704 1.8063
v 4.1068 2.4442 1.8549
v 4.1289 2.4806 1.8917
v 4.3907 2.3178 1.5641
v 4.4122 2.3521 1.5861
v 4.4497 2.2988 1.6431
v 4.4237 2.2672 1.6127
v 4.0721 2.4277 1.7736
v 4.0973 2.4066 1.8146
v 4.2162 2.2499 1.5769
v 4.1448 2.2756 1.6148
v 4.2972 2.5828 1.8282
v 4.2458 2.5902 1.8582
v 4.2847 2.5572 1.9221
v 4.3393 2.5445 1.8896
v 4.0996 2.3218 1.6691
v 4.3972 2.5028 1.716
v 4.1886 2.5785 1.8773
v 4.223 2.5553 1.9421
v 4.0762 2.3783 1.7274
v 4.4173 2.465 1.6768
v 4.7458 1.9625 2.2777
v 4.6944 2.0347 2.4394
v 4.7733 1.9223 2.3042
v 4.7496 1.9149 2.3401
v 4.7103 2.0033 2.4731
v 4.6798 1.9971 2.5134
v 4.7721 1.859 2.1082
v 4.7783 1.8249 2.0921
v 4.6171 1.969 2.5635
v 4.5916 1.9976 2.609
v 4.7699 1.8662 2.1405
v 4.7777 1.8361 2.2004
v 4.7909 1.9032 2.2808
v 4.7581 1.8216 2.0594
v 4.5157 1.8647 2.2405
v 4.497 1.915 2.2108
v 4.3197 2.5269 1.9894
v 4.2527 2.5284 2.0081
v 4.3771 2.5079 1.9545
v 3.9319 2.17 2.5767
v 3.9412 2.1351 2.5567
v 4.1142 2.1305 2.5957
v 4.1111 2.1659 2.6237
v 3.98 2.1008 2.5367
v 4.0511 2.0873 2.545
v 4.0959 2.104 2.5751
v 4.0501 2.2209 2.6338
v 3.9871 2.2306 2.6268
v 3.9425 2.2079 2.6019
v 4.0026 2.2489 2.5883
v 3.956 2.2225 2.5624
v 3.9449 2.1845 2.5401
v 3.9512 2.1495 2.5232
v 3.9844 2.1142 2.5078
v 4.1287 2.1424 2.5608
v 4.1274 2.1772 2.5891
v 4.0604 2.0978 2.519
v 4.1083 2.1161 2.5445
v 4.0703 2.2349 2.5991
v 4.0867 2.2512 2.569
v 4.0138 2.2703 2.5493
v 4.1438 2.1861 2.5608
v 3.9655 2.2345 2.523
v 3.9537 2.1973 2.5059
v 3.9566 2.1603 2.4939
v 3.9902 2.1223 2.4884
v 4.1438 2.1519 2.5354
v 4.0695 2.1047 2.5011
v 4.1202 2.1246 2.522
v 4.0012 2.1287 2.4658
v 4.0783 2.1103 2.4829
v 4.1304 2.1296 2.5008
v 4.1602 2.1576 2.5138
v 4.1051 2.2678 2.5408
v 4.0243 2.2944 2.5092
v 4.1625 2.1933 2.5367
v 3.9761 2.2531 2.4862
v 3.9621 2.2107 2.4738
v 3.967 2.169 2.4666
v 3.981 2.1748 2.4321
v 4.0071 2.1352 2.4468
v 4.182 2.1603 2.4938
v 4.1878 2.2082 2.5172
v 3.9703 2.2237 2.4307
v 4.0914 2.1171 2.4609
v 4.1488 2.135 2.4778
v 4.1282 2.2864 2.511
v 4.0441 2.3232 2.473
v 3.9851 2.2773 2.4418
v 4.0438 2.3512 2.4204
v 3.9937 2.3114 2.3856
v 3.9883 2.2369 2.3701
v 4.0061 2.1723 2.3755
v 4.065 2.13 2.3963
v 4.225 2.1673 2.4895
v 4.2364 2.2258 2.4995
v 4.1328 2.1263 2.43
v 4.1842 2.1377 2.4586
v 4.1479 2.3138 2.4776
v 4.0053 2.2448 2.2938
v 3.9974 2.3365 2.3152
v 4.032 2.167 2.3049
v 4.2526 2.0825 2.3709
v 4.1445 2.1158 2.2728
v 4.1824 2.1068 2.2038
v 4.3014 2.0584 2.2947
v 4.0645 2.1608 2.2152
v 4.1009 2.1657 2.1351
v 4.035 2.237 2.1949
v 4.0745 2.2299 2.1001
v 4.2284 2.1007 2.1434
v 4.3527 2.0482 2.238
v 4.2761 2.0904 2.0908
v 4.4001 2.0363 2.1888
v 4.3247 2.0745 2.0405
v 4.4295 1.9999 2.1368
v 4.0961 2.4293 2.2748
v 4.2402 2.4415 2.2917
v 4.2035 2.4787 2.1869
v 4.1166 2.4454 2.1647
v 4.3561 2.0106 1.9873
v 4.4508 1.9443 2.0761
v 4.4116 1.9315 1.9358
v 4.4814 1.872 2.008
v 4.5014 1.8534 1.8896
v 4.3451 1.9898 1.8626
v 4.4278 1.9293 1.8459
v 4.5456 1.8082 1.9379
v 4.2839 2.0919 2.475
v 4.1009 2.13 2.3403
v 4.5341 1.8203 2.2743
v 4.5988 2.2114 1.916
v 4.569 2.0929 2.6407
v 4.5882 2.0572 2.6212
v 4.5368 2.0992 2.6699
v 4.7309 1.9672 2.4575
v 4.1752 2.1186 2.396
v 4.6993 1.9739 1.9839
v 4.6927 2.0152 2.0276
v 4.464 2.3959 2.108
v 4.4028 2.4315 2.1503
v 4.5876 2.2541 1.9492
v 4.3142 2.4673 2.1855
v 4.6294 2.1608 2.2031
v 4.5991 1.7478 2.0253
v 4.6594 1.7631 1.9938
v 4.2771 2.0674 1.8974
v 4.2326 2.135 1.9463
v 4.2342 2.117 2.4471
v 4.2752 2.151 2.5171
v 4.2893 2.2203 2.5065
v 4.1951 2.3427 2.4364
v 4.0626 2.391 2.3565
v 4.6035 1.9256 1.8622
v 4.5524 1.8762 1.8659
v 4.4581 1.9487 1.7868
v 4.4729 2.0197 1.7447
v 4.6518 1.8783 1.9232
v 4.6093 1.8329 1.9141
v 4.6953 1.8267 1.986
v 4.0144 2.3465 2.2137
v 4.0586 2.3344 2.0871
v 4.4167 2.4593 2.027
v 4.4624 2.4288 1.9849
v 4.4208 2.4804 1.9147
v 4.4947 2.3961 1.9451
v 4.452 2.4488 1.877
v 4.5186 2.36 1.908
v 4.4754 2.4125 1.8404
v 4.5368 2.3204 1.872
v 4.4933 2.3726 1.804
v 4.5476 2.2789 1.8369
v 4.5041 2.331 1.77
v 4.139 2.5512 1.8653
v 4.0955 2.5936 1.8044
v 4.0131 2.6564 1.7236
v 3.7805 2.8382 1.4498
v 3.9116 2.7338 1.6075
v 2 4.98805206 0.586846467
v 2.0324 4.721 0.5595
v 2 4.82227113 0.557830986
v 2 4.76532468 0.559823538
v 2 4.71455496 0.541279096
v 2.1481 4.5786 0.5538
v 2.2944 4.3989 0.5531
v 2.4296 4.2052 0.5544
v 2.5785 4.0159 0.5719
v 2.6782 3.8848 0.5615
v 2.7726 3.7748 0.55
v 4.5493 2.2434 1.797
v 4.5047 2.2894 1.7362
v 4.5356 2.182 1.7478
v 4.4911 2.242 1.6951
v 2 4.89978176 0.569840575
v 4.3561 2.4865 2.0651
v 4.4685 2.2064 1.6549
v 4.1675 2.5211 1.9245
v 2 4.47401995 -0.281689409
v 2.0814 4.2726 -0.2522
v 2 4.36888616 -0.265580822
v 2.2309 4.0891 -0.2343
v 2.3884 3.9389 -0.2205
v 2.5233 3.8056 -0.1998
v 2.6534 3.6967 -0.19
v 2.7783 3.5911 -0.1843
v 2.8846 3.5046 -0.1533
v 2.9813 3.4178 -0.1214
v 3.0847 3.3269 -0.0514
v 3.1899 3.2279 0.0628
v 3.3121 3.0964 0.2134
v 3.4452 2.9438 0.4263
v 3.6041 2.7964 0.666
v 3.7887 2.6452 0.9147
v 3.9678 2.5336 1.1295
v 4.1025 2.4453 1.2932
v 4.1994 2.373 1.4194
v 4.2716 2.3179 1.5104
v 4.3149 2.2761 1.5624
v 4.3732 2.1783 1.6369
v 4.3425 2.2309 1.6045
v 4.3787 2.0309 2.6219
v 4.3492 2.0887 2.6078
v 4.3929 2.0691 2.6573
v 4.3632 2.0459 2.5928
v 4.3422 2.2025 2.5378
v 4.316 2.1256 2.5642
v 4.2413 2.3557 2.4121
v 4.4968 2.2202 2.4907
v 4.3293 2.3416 2.4002
v 4.5097 2.1476 1.6974
v 4.4082 2.133 1.6729
v 4.4162 2.2268 2.5273
v 4.3001 2.0875 1.7491
v 4.2941 2.17 1.6886
v 4.2336 2.1661 1.7941
v 4.2196 2.2172 1.7357
v 4.189 2.2201 1.8515
v 4.1743 2.2604 1.7941
v 4.1528 2.2622 1.9089
v 4.1481 2.3081 1.8525
v 4.1162 2.2806 1.9724
v 4.1376 2.3455 1.9089
v 4.1171 2.3842 1.9908
v 4.142 2.4509 2.0616
v 4.1932 2.5011 2.0905
v 4.3167 2.0351 1.7968
v 4.2414 2.1248 1.8357
v 4.1906 2.1597 1.9994
v 4.143 2.1691 2.061
v 4.1956 2.1882 1.8912
v 4.1595 2.216 1.9459
v 4.1147 2.2253 2.0087
v 4.279 2.5026 2.0899
v 4.6865 1.9259 1.9475
v 3.4429 3.1427 1.0603
v 3.6285 2.9833 1.2677
v 3.2553 3.3065 0.8775
v 3.114 3.4451 0.7177
v 3.0509 3.4976 0.6173
v 3.0088 3.5335 0.563
v 2.9625 3.5748 0.5414
v 2.9108 3.6246 0.5387
v 2.8512 3.6882 0.5438
v 4.1885 2.5024 1.998
v 4.1539 2.4581 1.9661
v 4.1328 2.4115 1.9146
v 4.1217 2.3803 1.8566
v 4.1265 2.3357 1.8095
v 4.1514 2.2853 1.7521
v 4.1952 2.2406 1.6937
v 4.273 2.2053 1.6486
v 4.2469 2.227 1.6148
v 4.3813 2.5208 1.8528
v 4.4119 2.4908 1.8166
v 4.4641 2.3774 1.7081
v 4.4639 2.3395 1.6775
v 4.171 2.2585 1.6557
v 4.1254 2.3056 1.7111
v 4.4358 2.4553 1.779
v 4.1016 2.3601 1.7685
v 4.4538 2.4161 1.7415
f 1 2 3
f 2 1 4 5 6
f 6 5 7 8
f 9 10 11 12
f 12 11 13 14
f 14 13 15 16
f 16 15 17 18
f 19 5 4
f 5 19 20 7
f 10 21 22 11
f 11 22 23 13
f 13 23 24 15
f 15 24 25 17
f 26 27 28
f 3 2 29 30
f 29 2 6 31
f 31 6 8 32
f 33 9 12 34
f 34 12 14 35
f 35 14 16 36
f 36 16 18 37
f 38 39 40 41
f 39 42 40
f 43 44 39 38
f 44 45 46 42 39
f 45 47 46
f 48 49 44 43
f 49 50 45 44
f 50 51 47 45
f 52 53 49 48
f 53 54 50 49
f 54 55 56 51 50
f 55 57 56
f 58 59 60
f 61 62 63 64
f 62 65 66 63
f 65 67 68 66
f 67 58 60 69 68
f 70 71 59 58
f 72 73 62 61
f 73 74 65 62
f 74 75 67 65
f 75 70 58 67
f 76 77 70 75
f 77 78 79 71 70
f 80 81 73 72
f 81 82 74 73
f 82 76 75 74
f 64 63 53 52
f 63 66 54 53
f 66 68 55 54
f 68 69 57 55
f 8 7 10 9
f 32 8 9 33
f 7 20 83 21 10
f 29 38 41 30
f 31 43 38 29
f 43 31 32 48
f 33 52 48 32
f 52 33 34 64
f 64 34 35 61
f 36 72 61 35
f 72 36 37 80
f 79 78 84 85
f 86 87 81 80
f 18 17 88 89
f 90 84 78 91
f 87 92 82 81
f 17 25 93 88
f 92 94 76 82
f 89 95 37 18
f 94 96 77 76
f 96 91 78 77
f 95 86 80 37
f 27 26 97 98 99
f 100 101 102
f 103 98 97
f 104 105 106 107
f 108 109 87 86
f 88 93 110 111
f 107 106 112 113
f 109 114 92 87
f 113 112 115 116
f 114 117 94 92
f 118 108 86 95
f 117 119 96 94
f 99 98 120 121
f 122 90 91 123
f 119 123 91 96
f 98 103 116 115 120
f 101 124 105 104 102
f 125 118 95 89
f 89 88 111 125
f 106 126 127 112
f 128 129 114 109
f 112 127 130 115
f 129 131 117 114
f 132 133 108 118
f 131 134 119 117
f 121 120 135 136
f 137 122 123 138
f 134 138 123 119
f 120 115 130 135
f 124 139 140 105
f 141 132 118 125
f 125 111 142 141
f 105 140 126 106
f 133 128 109 108
f 111 110 143 142
f 127 144 145 130
f 146 147 131 129
f 148 149 133 132
f 147 150 134 131
f 136 135 151 152
f 153 137 138 154
f 150 154 138 134
f 135 130 145 151
f 139 155 156 140
f 157 148 132 141
f 141 142 158 157
f 140 156 159 126
f 149 160 128 133
f 142 143 161 158
f 126 159 144 127
f 160 146 129 128
f 162 163 164 165
f 166 167 168 169
f 170 171 172 173
f 174 175 176 177
f 178 179 180 181
f 182 183 184 185
f 186 187 188 189
f 190 191 192 193
f 194 195 196 197
f 198 199 200 201
f 202 173 172 203
f 204 205 206 207
f 208 209 210 211
f 212 213 214 215
f 216 217 192 191
f 218 219 184 183
f 220 221 168 167
f 201 200 222 223
f 211 210 224 225
f 226 224 210 227
f 228 165 164 229
f 230 169 168 231
f 232 233 234 235
f 236 237 238 239
f 240 241 242 243
f 244 245 246 247
f 233 236 239 234
f 248 249 250 251
f 252 253 250 254
f 255 256 257 258
f 259 252 254 260
f 261 262 263 264
f 265 266 267 268
f 269 270 271 272
f 262 269 272 263
f 263 272 273 274
f 272 271 275 273
f 163 170 173 164
f 179 174 177 180
f 187 194 197 188
f 276 277 278 279
f 229 164 173 202
f 280 281 282 283
f 284 285 286 287
f 268 267 288 289
f 264 263 274 290
f 260 254 241 240
f 258 257 291 292
f 254 250 249 241
f 251 250 253 293
f 294 295 296 297
f 242 246 245 298
f 235 234 262 261
f 243 242 298 299
f 234 239 269 262
f 300 301 256 255
f 239 238 270 269
f 247 246 249 248
f 302 303 233 232
f 304 305 237 236
f 306 307 308 309
f 310 311 312 313
f 209 314 227 210
f 315 212 215 231
f 316 226 227 207
f 317 318 319 320
f 321 322 215 214
f 320 319 311 310
f 285 323 324 286
f 325 326 327 328
f 329 330 331 332
f 333 334 335 336
f 337 338 339 340
f 341 339 342 343
f 344 345 346 347
f 348 349 350 351
f 193 192 334 333
f 352 325 328 353
f 354 352 353 355
f 319 229 202 311
f 356 357 335 334
f 349 276 279 350
f 347 346 358 359
f 360 361 245 244
f 318 228 229 319
f 303 304 236 233
f 328 327 171 170
f 362 309 308 363
f 189 188 352 354
f 197 196 326 325
f 217 356 334 192
f 364 340 339 341
f 338 361 342 339
f 336 335 167 166
f 346 201 223 358
f 345 198 201 346
f 188 197 325 352
f 221 315 231 168
f 314 204 207 227
f 311 202 203 312
f 281 348 351 282
f 206 347 359 365
f 322 230 231 215
f 365 316 207 206
f 323 280 283 324
f 205 344 347 206
f 355 353 163 162
f 353 328 170 163
f 357 220 167 335
f 366 367 187 186
f 368 369 191 190
f 370 371 195 194
f 372 216 191 369
f 367 370 194 187
f 200 373 374 222
f 277 375 376 278
f 199 377 373 200
f 373 341 343 374
f 375 362 363 376
f 377 364 341 373
f 378 379 367 366
f 380 381 369 368
f 382 383 371 370
f 384 372 369 381
f 379 382 370 367
f 332 331 301 300
f 289 288 295 294
f 241 249 246 242
f 279 278 385 386
f 283 282 387 388
f 287 286 389 390
f 288 391 392 295
f 266 393 394 267
f 267 394 391 288
f 295 392 395 296
f 286 324 396 389
f 307 397 398 308
f 351 350 399 400
f 363 308 398 401
f 350 279 386 399
f 324 283 388 396
f 282 351 400 387
f 278 376 402 385
f 376 363 401 402
f 403 404 280 323
f 405 406 285 284
f 406 403 323 285
f 407 408 309 362
f 409 268 289 410
f 411 412 348 281
f 413 414 375 277
f 415 294 297 416
f 417 413 277 276
f 404 411 281 280
f 418 417 276 349
f 410 289 294 415
f 419 265 268 409
f 414 407 362 375
f 420 306 309 408
f 412 418 349 348
f 421 422 266 265
f 274 273 423 424
f 393 266 422 425
f 290 274 424 426
f 427 428 253 252
f 292 291 429 430
f 419 292 430 431
f 293 253 428 432
f 433 427 252 259
f 273 275 434 423
f 431 430 435 436
f 433 436 435 427
f 427 435 437 428
f 435 430 429 437
f 438 426 424 423
f 438 432 428 437
f 380 383 303 302
f 382 379 305 304
f 297 296 307 306
f 384 381 330 329
f 299 298 338 337
f 378 342 361 360
f 383 382 304 303
f 298 245 361 338
f 296 395 397 307
f 416 297 306 420
f 439 440 441 442
f 443 444 445 446
f 447 448 449 450
f 451 452 453 454
f 455 456 457 458
f 459 460 461 462
f 463 464 465 466
f 467 468 469 470
f 471 472 473 474
f 475 476 477 478
f 479 450 449 480
f 481 482 483 484
f 485 486 487 488
f 489 490 491 492
f 493 494 469 468
f 495 496 461 460
f 497 498 445 444
f 478 477 499 500
f 488 487 501 502
f 503 501 487 504
f 505 442 441 506
f 507 446 445 508
f 509 510 511 512
f 513 514 515 516
f 517 518 519 520
f 521 522 523 524
f 510 513 516 511
f 525 526 527 528
f 529 530 527 531
f 532 533 534 535
f 536 529 531 537
f 538 539 540 541
f 542 543 544 545
f 546 547 548 549
f 539 546 549 540
f 540 549 550 551
f 549 548 552 550
f 440 447 450 441
f 456 451 454 457
f 464 471 474 465
f 553 554 555 556
f 506 441 450 479
f 557 558 559 560
f 561 562 563 564
f 545 544 565 566
f 541 540 551 567
f 537 531 518 517
f 535 534 568 569
f 531 527 526 518
f 528 527 530 570
f 571 572 573 574
f 519 523 522 575
f 512 511 539 538
f 520 519 575 576
f 511 516 546 539
f 577 578 533 532
f 516 515 547 546
f 524 523 526 525
f 579 580 510 509
f 581 582 514 513
f 583 584 585 586
f 587 588 589 590
f 486 591 504 487
f 592 489 492 508
f 593 503 504 484
f 594 595 596 597
f 598 599 492 491
f 597 596 588 587
f 562 600 601 563
f 602 603 604 605
f 606 607 608 609
f 610 611 612 613
f 614 615 616 617
f 618 616 619 620
f 621 622 623 624
f 625 626 627 628
f 470 469 611 610
f 629 602 605 630
f 631 629 630 632
f 596 506 479 588
f 633 634 612 611
f 626 553 556 627
f 624 623 635 636
f 637 638 522 521
f 595 505 506 596
f 580 581 513 510
f 605 604 448 447
f 639 586 585 640
f 466 465 629 631
f 474 473 603 602
f 494 633 611 469
f 641 617 616 618
f 615 638 619 616
f 613 612 444 443
f 623 478 500 635
f 622 475 478 623
f 465 474 602 629
f 498 592 508 445
f 591 481 484 504
f 588 479 480 589
f 558 625 628 559
f 483 624 636 642
f 599 507 508 492
f 642 593 484 483
f 600 557 560 601
f 482 621 624 483
f 632 630 440 439
f 630 605 447 440
f 634 497 444 612
f 643 644 464 463
f 645 646 468 467
f 647 648 472 471
f 649 493 468 646
f 644 647 471 464
f 477 650 651 499
f 554 652 653 555
f 476 654 650 477
f 650 618 620 651
f 652 639 640 653
f 654 641 618 650
f 655 656 644 643
f 657 658 646 645
f 659 660 648 647
f 661 649 646 658
f 656 659 647 644
f 609 608 578 577
f 566 565 572 571
f 518 526 523 519
f 556 555 662 663
f 560 559 664 665
f 564 563 666 667
f 565 668 669 572
f 543 670 671 544
f 544 671 668 565
f 572 669 672 573
f 563 601 673 666
f 584 674 675 585
f 628 627 676 677
f 640 585 675 678
f 627 556 663 676
f 601 560 665 673
f 559 628 677 664
f 555 653 679 662
f 653 640 678 679
f 680 681 557 600
f 682 683 562 561
f 683 680 600 562
f 684 685 586 639
f 686 545 566 687
f 688 689 625 558
f 690 691 652 554
f 692 571 574 693
f 694 690 554 553
f 681 688 558 557
f 695 694 553 626
f 687 566 571 692
f 696 542 545 686
f 691 684 639 652
f 697 583 586 685
f 689 695 626 625
f 698 699 543 542
f 551 550 700 701
f 670 543 699 702
f 567 551 701 703
f 704 705 530 529
f 569 568 706 707
f 696 569 707 708
f 570 530 705 709
f 710 704 529 536
f 550 552 711 700
f 708 707 712 713
f 710 713 712 704
f 704 712 714 705
f 712 707 706 714
f 715 703 701 700
f 715 709 705 714
f 657 660 580 579
f 659 656 582 581
f 574 573 584 583
f 661 658 607 606
f 576 575 615 614
f 655 619 638 637
f 660 659 581 580
f 575 522 638 615
f 573 672 674 584
f 693 574 583 697
f 716 717 718 719
f 720 721 722 723
f 724 725 726 727
f 728 729 730 731
f 732 733 734 735
f 736 737 738 739
f 740 741 742 743
f 744 745 746 747
f 748 749 750 751
f 752 753 754 755
f 756 727 726 757
f 758 759 760 761
f 762 763 764 765
f 766 767 768 769
f 770 771 746 745
f 772 773 738 737
f 774 775 722 721
f 755 754 776 777
f 765 764 778 779
f 780 778 764 781
f 782 719 718 783
f 784 723 722 785
f 786 787 788 789
f 790 791 792 793
f 794 795 796 797
f 798 799 800 801
f 787 790 793 788
f 802 803 804 805
f 806 807 804 808
f 809 810 811 812
f 813 806 808 814
f 815 816 817 818
f 819 820 821 822
f 823 824 825 826
f 816 823 826 817
f 817 826 827 828
f 826 825 829 827
f 717 724 727 718
f 733 728 731 734
f 741 748 751 742
f 830 831 832 833
f 783 718 727 756
f 834 835 836 837
f 838 839 840 841
f 822 821 842 843
f 818 817 828 844
f 814 808 795 794
f 812 811 845 846
f 808 804 803 795
f 805 804 807 847
f 848 849 850 851
f 796 800 799 852
f 789 788 816 815
f 797 796 852 853
f 788 793 823 816
f 854 855 810 809
f 793 792 824 823
f 801 800 803 802
f 856 857 787 786
f 858 859 791 790
f 860 861 862 863
f 864 865 866 867
f 763 868 781 764
f 869 766 769 785
f 870 780 781 761
f 871 872 873 874
f 875 876 769 768
f 874 873 865 864
f 839 877 878 840
f 879 880 881 882
f 883 884 885 886
f 887 888 889 890
f 891 892 893 894
f 895 893 896 897
f 898 899 900 901
f 902 903 904 905
f 747 746 888 887
f 906 879 882 907
f 908 906 907 909
f 873 783 756 865
f 910 911 889 888
f 903 830 833 904
f 901 900 912 913
f 914 915 799 798
f 872 782 783 873
f 857 858 790 787
f 882 881 725 724
f 916 863 862 917
f 743 742 906 908
f 751 750 880 879
f 771 910 888 746
f 918 894 893 895
f 892 915 896 893
f 890 889 721 720
f 900 755 777 912
f 899 752 755 900
f 742 751 879 906
f 775 869 785 722
f 868 758 761 781
f 865 756 757 866
f 835 902 905 836
f 760 901 913 919
f 876 784 785 769
f 919 870 761 760
f 877 834 837 878
f 759 898 901 760
f 909 907 717 716
f 907 882 724 717
f 911 774 721 889
f 920 921 741 740
f 922 923 745 744
f 924 925 749 748
f 926 770 745 923
f 921 924 748 741
f 754 927 928 776
f 831 929 930 832
f 753 931 927 754
f 927 895 897 928
f 929 916 917 930
f 931 918 895 927
f 932 933 921 920
f 934 935 923 922
f 936 937 925 924
f 938 926 923 935
f 933 936 924 921
f 886 885 855 854
f 843 842 849 848
f 795 803 800 796
f 833 832 939 940
f 837 836 941 942
f 841 840 943 944
f 842 945 946 849
f 820 947 948 821
f 821 948 945 842
f 849 946 949 850
f 840 878 950 943
f 861 951 952 862
f 905 904 953 954
f 917 862 952 955
f 904 833 940 953
f 878 837 942 950
f 836 905 954 941
f 832 930 956 939
f 930 917 955 956
f 957 958 834 877
f 959 960 839 838
f 960 957 877 839
f 961 962 863 916
f 963 822 843 964
f 965 966 902 835
f 967 968 929 831
f 969 848 851 970
f 971 967 831 830
f 958 965 835 834
f 972 971 830 903
f 964 843 848 969
f 973 819 822 963
f 968 961 916 929
f 974 860 863 962
f 966 972 903 902
f 975 976 820 819
f 828 827 977 978
f 947 820 976 979
f 844 828 978 980
f 981 982 807 806
f 846 845 983 984
f 973 846 984 985
f 847 807 982 986
f 987 981 806 813
f 827 829 988 977
f 985 984 989 990
f 987 990 989 981
f 981 989 991 982
f 989 984 983 991
f 992 980 978 977
f 992 986 982 991
f 934 937 857 856
f 936 933 859 858
f 851 850 861 860
f 938 935 884 883
f 853 852 892 891
f 932 896 915 914
f 937 936 858 857
f 852 799 915 892
f 850 949 951 861
f 970 851 860 974
f 993 994 995 996
f 997 998 999 1000
f 1001 1002 1003 1004
f 1005 1006 1007 1008
f 1009 1010 1011 1012
f 1013 1014 1015 1016
f 1017 1018 1019 1020
f 1021 1022 1023 1024
f 1025 1026 1027 1028
f 1029 1030 1031 1032
f 1033 1004 1003 1034
f 1035 1036 1037 1038
f 1039 1040 1041 1042
f 1043 1044 1045 1046
f 1047 1048 1023 1022
f 1049 1050 1015 1014
f 1051 1052 999 998
f 1032 1031 1053 1054
f 1042 1041 1055 1056
f 1057 1055 1041 1058
f 1059 996 995 1060
f 1061 1000 999 1062
f 1063 1064 1065 1066
f 1067 1068 1069 1070
f 1071 1072 1073 1074
f 1075 1076 1077 1078
f 1064 1067 1070 1065
f 1079 1080 1081 1082
f 1083 1084 1081 1085
f 1086 1087 1088 1089
f 1090 1083 1085 1091
f 1092 1093 1094 1095
f 1096 1097 1098 1099
f 1100 1101 1102 1103
f 1093 1100 1103 1094
f 1094 1103 1104 1105
f 1103 1102 1106 1104
f 994 1001 1004 995
f 1010 1005 1008 1011
f 1018 1025 1028 1019
f 1107 1108 1109 1110
f 1060 995 1004 1033
f 1111 1112 1113 1114
f 1115 1116 1117 1118
f 1099 1098 1119 1120
f 1095 1094 1105 1121
f 1091 1085 1072 1071
f 1089 1088 1122 1123
f 1085 1081 1080 1072
f 1082 1081 1084 1124
f 1125 1126 1127 1128
f 1073 1077 1076 1129
f 1066 1065 1093 1092
f 1074 1073 1129 1130
f 1065 1070 1100 1093
f 1131 1132 1087 1086
f 1070 1069 1101 1100
f 1078 1077 1080 1079
f 1133 1134 1064 1063
f 1135 1136 1068 1067
f 1137 1138 1139 1140
f 1141 1142 1143 1144
f 1040 1145 1058 1041
f 1146 1043 1046 1062
f 1147 1057 1058 1038
f 1148 1149 1150 1151
f 1152 1153 1046 1045
f 1151 1150 1142 1141
f 1116 1154 1155 1117
f 1156 1157 1158 1159
f 1160 1161 1162 1163
f 1164 1165 1166 1167
f 1168 1169 1170 1171
f 1172 1170 1173 1174
f 1175 1176 1177 1178
f 1179 1180 1181 1182
f 1024 1023 1165 1164
f 1183 1156 1159 1184
f 1185 1183 1184 1186
f 1150 1060 1033 1142
f 1187 1188 1166 1165
f 1180 1107 1110 1181
f 1178 1177 1189 1190
f 1191 1192 1076 1075
f 1149 1059 1060 1150
f 1134 1135 1067 1064
f 1159 1158 1002 1001
f 1193 1140 1139 1194
f 1020 1019 1183 1185
f 1028 1027 1157 1156
f 1048 1187 1165 1023
f 1195 1171 1170 1172
f 1169 1192 1173 1170
f 1167 1166 998 997
f 1177 1032 1054 1189
f 1176 1029 1032 1177
f 1019 1028 1156 1183
f 1052 1146 1062 999
f 1145 1035 1038 1058
f 1142 1033 1034 1143
f 1112 1179 1182 1113
f 1037 1178 1190 1196
f 1153 1061 1062 1046
f 1196 1147 1038 1037
f 1154 1111 1114 1155
f 1036 1175 1178 1037
f 1186 1184 994 993
f 1184 1159 1001 994
f 1188 1051 998 1166
f 1197 1198 1018 1017
f 1199 1200 1022 1021
f 1201 1202 1026 1025
f 1203 1047 1022 1200
f 1198 1201 1025 1018
f 1031 1204 1205 1053
f 1108 1206 1207 1109
f 1030 1208 1204 1031
f 1204 1172 1174 1205
f 1206 1193 1194 1207
f 1208 1195 1172 1204
f 1209 1210 1198 1197
f 1211 1212 1200 1199
f 1213 1214 1202 1201
f 1215 1203 1200 1212
f 1210 1213 1201 1198
f 1163 1162 1132 1131
f 1120 1119 1126 1125
f 1072 1080 1077 1073
f 1110 1109 1216 1217
f 1114 1113 1218 1219
f 1118 1117 1220 1221
f 1119 1222 1223 1126
f 1097 1224 1225 1098
f 1098 1225 1222 1119
f 1126 1223 1226 1127
f 1117 1155 1227 1220
f 1138 1228 1229 1139
f 1182 1181 1230 1231
f 1194 1139 1229 1232
f 1181 1110 1217 1230
f 1155 1114 1219 1227
f 1113 1182 1231 1218
f 1109 1207 1233 1216
f 1207 1194 1232 1233
f 1234 1235 1111 1154
f 1236 1237 1116 1115
f 1237 1234 1154 1116
f 1238 1239 1140 1193
f 1240 1099 1120 1241
f 1242 1243 1179 1112
f 1244 1245 1206 1108
f 1246 1125 1128 1247
f 1248 1244 1108 1107
f 1235 1242 1112 1111
f 1249 1248 1107 1180
f 1241 1120 1125 1246
f 1250 1096 1099 1240
f 1245 1238 1193 1206
f 1251 1137 1140 1239
f 1243 1249 1180 1179
f 1252 1253 1097 1096
f 1105 1104 1254 1255
f 1224 1097 1253 1256
f 1121 1105 1255 1257
f 1258 1259 1084 1083
f 1123 1122 1260 1261
f 1250 1123 1261 1262
f 1124 1084 1259 1263
f 1264 1258 1083 1090
f 1104 1106 1265 1254
f 1262 1261 1266 1267
f 1264 1267 1266 1258
f 1258 1266 1268 1259
f 1266 1261 1260 1268
f 1269 1257 1255 1254
f 1269 1263 1259 1268
f 1211 1214 1134 1133
f 1213 1210 1136 1135
f 1128 1127 1138 1137
f 1215 1212 1161 1160
f 1130 1129 1169 1168
f 1209 1173 1192 1191
f 1214 1213 1135 1134
f 1129 1076 1192 1169
f 1127 1226 1228 1138
f 1247 1128 1137 1251
f 1270 1271 1272 1273
f 1274 1275 1276 1277
f 1278 1274 1277 1279
f 1280 1281 1282 1283
f 1284 1285 1276 1275
f 1283 1282 1273 1286
f 1287 1288 1289 1290
f 1291 1292 1293 1294
f 1295 1296 1297 1298
f 1292 1299 1300 1293
f 1288 1291 1294 1289
f 1301 1302 1303 1304
f 1305 1306 1303 1307
f 1308 1309 1310 1311
f 1312 1305 1307 1313
f 1309 1314 1315 1310
f 1316 1317 1318 1319
f 1320 1301 1304 1321
f 1314 1320 1321 1315
f 1315 1321 1322 1323
f 1321 1304 1324 1322
f 1271 1278 1279 1272
f 1325 1326 1327 1328
f 1319 1318 1329 1330
f 1310 1315 1323 1331
f 1313 1307 1296 1295
f 1311 1310 1331 1332
f 1307 1303 1302 1296
f 1304 1303 1306 1324
f 1333 1334 1335 1336
f 1297 1300 1299 1337
f 1290 1289 1314 1309
f 1298 1297 1337 1338
f 1289 1294 1320 1314
f 1339 1290 1309 1308
f 1294 1293 1301 1320
f 1293 1300 1302 1301
f 1340 1341 1288 1287
f 1342 1343 1292 1291
f 1344 1345 1346 1347
f 1348 1340 1287 1349
f 1350 1351 1352 1353
f 1354 1352 1355 1356
f 1277 1276 1357 1358
f 1343 1359 1299 1292
f 1341 1342 1291 1288
f 1360 1347 1346 1361
f 1273 1272 1362 1286
f 1279 1277 1358 1363
f 1285 1364 1357 1276
f 1365 1353 1352 1354
f 1351 1359 1355 1352
f 1272 1279 1363 1362
f 1356 1366 1271 1270
f 1367 1368 1275 1274
f 1369 1367 1274 1278
f 1370 1284 1275 1368
f 1366 1369 1278 1271
f 1282 1371 1270 1273
f 1326 1372 1373 1327
f 1281 1374 1371 1282
f 1371 1354 1356 1270
f 1372 1360 1361 1373
f 1374 1365 1354 1371
f 1355 1375 1366 1356
f 1376 1377 1368 1367
f 1378 1376 1367 1369
f 1379 1370 1368 1377
f 1375 1378 1369 1366
f 1349 1287 1290 1339
f 1330 1329 1334 1333
f 1296 1302 1300 1297
f 1328 1327 1281 1280
f 1329 1295 1298 1334
f 1317 1312 1313 1318
f 1318 1313 1295 1329
f 1334 1298 1338 1335
f 1345 1350 1353 1346
f 1361 1346 1353 1365
f 1327 1373 1374 1281
f 1373 1361 1365 1374
f 1370 1379 1347 1360
f 1311 1319 1330 1308
f 1285 1284 1372 1326
f 1339 1333 1336 1349
f 1364 1285 1326 1325
f 1308 1330 1333 1339
f 1332 1316 1319 1311
f 1284 1370 1360 1372
f 1348 1344 1347 1379
f 1380 1381 1317 1316
f 1323 1322 1382 1383
f 1312 1317 1381 1384
f 1331 1323 1383 1385
f 1386 1387 1306 1305
f 1332 1331 1385 1388
f 1316 1332 1388 1380
f 1324 1306 1387 1389
f 1384 1386 1305 1312
f 1322 1324 1389 1382
f 1380 1388 1390 1381
f 1384 1381 1390 1386
f 1386 1390 1391 1387
f 1390 1388 1385 1391
f 1391 1385 1383 1382
f 1382 1389 1387 1391
f 1377 1376 1341 1340
f 1378 1375 1343 1342
f 1336 1335 1345 1344
f 1379 1377 1340 1348
f 1338 1337 1351 1350
f 1375 1355 1359 1343
f 1376 1378 1342 1341
f 1337 1299 1359 1351
f 1335 1338 1350 1345
f 1349 1336 1344 1348
f 359 162 165 365
f 171 166 169 172
f 225 178 181 1392
f 175 182 185 176
f 374 186 189 222
f 195 190 193 196
f 316 365 165 228
f 203 172 169 230
f 331 232 235 301
f 237 244 247 238
f 270 248 251 271
f 256 261 264 257
f 257 264 290 291
f 271 251 293 275
f 301 235 261 256
f 238 247 248 270
f 330 302 232 331
f 224 226 318 317
f 313 312 322 321
f 326 333 336 327
f 196 193 333 326
f 223 354 355 358
f 305 360 244 237
f 226 316 228 318
f 222 189 354 223
f 327 336 166 171
f 312 203 230 322
f 358 355 162 359
f 343 366 186 374
f 371 368 190 195
f 342 378 366 343
f 383 380 368 371
f 291 290 426 429
f 275 293 432 434
f 437 429 426 438
f 423 434 432 438
f 381 380 302 330
f 379 378 360 305
f 636 439 442 642
f 448 443 446 449
f 502 455 458 1393
f 452 459 462 453
f 651 463 466 499
f 472 467 470 473
f 593 642 442 505
f 480 449 446 507
f 608 509 512 578
f 514 521 524 515
f 547 525 528 548
f 533 538 541 534
f 534 541 567 568
f 548 528 570 552
f 578 512 538 533
f 515 524 525 547
f 607 579 509 608
f 501 503 595 594
f 590 589 599 598
f 603 610 613 604
f 473 470 610 603
f 500 631 632 635
f 582 637 521 514
f 503 593 505 595
f 499 466 631 500
f 604 613 443 448
f 589 480 507 599
f 635 632 439 636
f 620 643 463 651
f 648 645 467 472
f 619 655 643 620
f 660 657 645 648
f 568 567 703 706
f 552 570 709 711
f 714 706 703 715
f 700 711 709 715
f 658 657 579 607
f 656 655 637 582
f 913 716 719 919
f 725 720 723 726
f 779 732 735 1394
f 729 736 739 730
f 928 740 743 776
f 749 744 747 750
f 870 919 719 782
f 757 726 723 784
f 885 786 789 855
f 791 798 801 792
f 824 802 805 825
f 810 815 818 811
f 811 818 844 845
f 825 805 847 829
f 855 789 815 810
f 792 801 802 824
f 884 856 786 885
f 778 780 872 871
f 867 866 876 875
f 880 887 890 881
f 750 747 887 880
f 777 908 909 912
f 859 914 798 791
f 780 870 782 872
f 776 743 908 777
f 881 890 720 725
f 866 757 784 876
f 912 909 716 913
f 897 920 740 928
f 925 922 744 749
f 896 932 920 897
f 937 934 922 925
f 845 844 980 983
f 829 847 986 988
f 991 983 980 992
f 977 988 986 992
f 935 934 856 884
f 933 932 914 859
f 1190 993 996 1196
f 1002 997 1000 1003
f 1056 1009 1012 1395
f 1006 1013 1016 1007
f 1205 1017 1020 1053
f 1026 1021 1024 1027
f 1147 1196 996 1059
f 1034 1003 1000 1061
f 1162 1063 1066 1132
f 1068 1075 1078 1069
f 1101 1079 1082 1102
f 1087 1092 1095 1088
f 1088 1095 1121 1122
f 1102 1082 1124 1106
f 1132 1066 1092 1087
f 1069 1078 1079 1101
f 1161 1133 1063 1162
f 1055 1057 1149 1148
f 1144 1143 1153 1152
f 1157 1164 1167 1158
f 1027 1024 1164 1157
f 1054 1185 1186 1189
f 1136 1191 1075 1068
f 1057 1147 1059 1149
f 1053 1020 1185 1054
f 1158 1167 997 1002
f 1143 1034 1061 1153
f 1189 1186 993 1190
f 1174 1197 1017 1205
f 1202 1199 1021 1026
f 1173 1209 1197 1174
f 1214 1211 1199 1202
f 1122 1121 1257 1260
f 1106 1124 1263 1265
f 1268 1260 1257 1269
f 1254 1265 1263 1269
f 1212 1211 1133 1161
f 1210 1209 1191 1136
f 386 385 199 198
f 388 387 205 204
f 390 389 209 208
f 391 240 243 392
f 393 259 260 394
f 394 260 240 391
f 392 243 299 395
f 389 396 314 209
f 397 337 340 398
f 400 399 345 344
f 401 398 340 364
f 399 386 198 345
f 396 388 204 314
f 387 400 344 205
f 385 402 377 199
f 402 401 364 377
f 212 315 404 403
f 218 213 406 405
f 213 212 403 406
f 372 384 408 407
f 258 409 410 255
f 221 220 412 411
f 217 216 414 413
f 300 415 416 332
f 356 217 413 417
f 315 221 411 404
f 357 356 417 418
f 255 410 415 300
f 292 419 409 258
f 216 372 407 414
f 329 420 408 384
f 220 357 418 412
f 265 419 431 421
f 425 433 259 393
f 421 431 436 422
f 425 422 436 433
f 395 299 337 397
f 332 416 420 329
f 663 662 476 475
f 665 664 482 481
f 667 666 486 485
f 668 517 520 669
f 670 536 537 671
f 671 537 517 668
f 669 520 576 672
f 666 673 591 486
f 674 614 617 675
f 677 676 622 621
f 678 675 617 641
f 676 663 475 622
f 673 665 481 591
f 664 677 621 482
f 662 679 654 476
f 679 678 641 654
f 489 592 681 680
f 495 490 683 682
f 490 489 680 683
f 649 661 685 684
f 535 686 687 532
f 498 497 689 688
f 494 493 691 690
f 577 692 693 609
f 633 494 690 694
f 592 498 688 681
f 634 633 694 695
f 532 687 692 577
f 569 696 686 535
f 493 649 684 691
f 606 697 685 661
f 497 634 695 689
f 542 696 708 698
f 702 710 536 670
f 698 708 713 699
f 702 699 713 710
f 672 576 614 674
f 609 693 697 606
f 940 939 753 752
f 942 941 759 758
f 944 943 763 762
f 945 794 797 946
f 947 813 814 948
f 948 814 794 945
f 946 797 853 949
f 943 950 868 763
f 951 891 894 952
f 954 953 899 898
f 955 952 894 918
f 953 940 752 899
f 950 942 758 868
f 941 954 898 759
f 939 956 931 753
f 956 955 918 931
f 766 869 958 957
f 772 767 960 959
f 767 766 957 960
f 926 938 962 961
f 812 963 964 809
f 775 774 966 965
f 771 770 968 967
f 854 969 970 886
f 910 771 967 971
f 869 775 965 958
f 911 910 971 972
f 809 964 969 854
f 846 973 963 812
f 770 926 961 968
f 883 974 962 938
f 774 911 972 966
f 819 973 985 975
f 979 987 813 947
f 975 985 990 976
f 979 976 990 987
f 949 853 891 951
f 886 970 974 883
f 1217 1216 1030 1029
f 1219 1218 1036 1035
f 1221 1220 1040 1039
f 1222 1071 1074 1223
f 1224 1090 1091 1225
f 1225 1091 1071 1222
f 1223 1074 1130 1226
f 1220 1227 1145 1040
f 1228 1168 1171 1229
f 1231 1230 1176 1175
f 1232 1229 1171 1195
f 1230 1217 1029 1176
f 1227 1219 1035 1145
f 1218 1231 1175 1036
f 1216 1233 1208 1030
f 1233 1232 1195 1208
f 1043 1146 1235 1234
f 1049 1044 1237 1236
f 1044 1043 1234 1237
f 1203 1215 1239 1238
f 1089 1240 1241 1086
f 1052 1051 1243 1242
f 1048 1047 1245 1244
f 1131 1246 1247 1163
f 1187 1048 1244 1248
f 1146 1052 1242 1235
f 1188 1187 1248 1249
f 1086 1241 1246 1131
f 1123 1250 1240 1089
f 1047 1203 1238 1245
f 1160 1251 1239 1215
f 1051 1188 1249 1243
f 1096 1250 1262 1252
f 1256 1264 1090 1224
f 1252 1262 1267 1253
f 1256 1253 1267 1264
f 1226 1130 1168 1228
f 1163 1247 1251 1160
f 731 730 1396 1397
f 1398 1399 1400 1401
f 1402 1403 1011 1008
f 1404 1405 1050 1406
f 181 180 1407 1408
f 1409 1410 1411 1412
f 1008 1007 1413 1402
f 1414 1413 1007 1016
f 1415 1416 1417 1418
f 1406 1415 1418 1404
f 1419 1420 1421 1422
f 1408 1423 1392 181
f 1424 1400 1399 1425
f 1426 1427 457 454
f 1410 1428 1429 1411
f 1430 1417 1416 1431
f 1412 1432 1433 1409
f 1434 1421 1420 1435
f 454 453 1436 1426
f 1437 1407 180 177
f 1423 1433 1432 1392
f 1405 1438 1015 1050
f 1016 1015 1438 1414
f 1439 1429 1428 1440
f 1397 1441 734 731
f 177 176 1442 1437
f 1443 1444 1421 1434
f 1445 1446 1447 1448
f 1449 1450 1417 1430
f 1451 1452 1453 1454
f 1455 1446 1400 1424
f 1456 1444 1457 1458
f 1459 1460 1461 1462
f 1463 1464 1465 1462
f 1458 1466 1467 1468
f 739 1469 1396 730
f 1463 1462 1461 1470
f 1463 1470 1471 1472
f 1448 1447 1473 1474
f 1475 1476 1477 1478
f 1464 1473 1447 1465
f 1479 735 734 1441
f 1480 1466 1481 1482
f 1483 1484 1473 1464
f 1466 1458 1457 1481
f 1474 1473 1484 1485
f 1486 1487 1488 1489
f 1490 1491 1492 1493
f 1489 1494 1495 1486
f 1491 1496 1497 1492
f 1498 1497 1496 1499
f 1500 1501 1502 1503
f 1504 1498 1499 1505
f 1503 1502 1506 1507
f 1493 1508 1509 1490
f 1510 1511 1512 1513
f 1514 1515 1516 1517
f 1518 1519 1520 1521
f 1511 1522 1523 1512
f 1509 1524 1525 1526
f 462 1527 1436 453
f 1515 1519 1528 1516
f 1529 1518 1521 1530
f 1514 1510 1513 1531
f 1532 1533 1496 1491
f 1524 1534 1535 1525
f 1536 1489 1488 1537
f 1508 1538 1524 1509
f 1488 1505 1539 1537
f 310 313 175 174
f 317 320 179 178
f 321 214 183 182
f 1412 208 211 1432
f 213 218 183 214
f 1432 211 225 1392
f 320 310 174 179
f 1439 284 287 1429
f 1429 287 390 1411
f 1540 405 284 1439
f 224 317 178 225
f 313 321 182 175
f 1411 390 208 1412
f 219 218 405 1540
f 1541 682 561 1398
f 594 597 456 455
f 598 491 460 459
f 490 495 460 491
f 767 772 737 768
f 1542 485 488 1543
f 1544 959 838 1419
f 1420 841 944 1435
f 1398 561 564 1399
f 874 864 728 733
f 1425 667 485 1542
f 590 598 459 452
f 875 768 737 736
f 501 594 455 502
f 871 874 733 732
f 496 495 682 1541
f 1399 564 667 1425
f 1416 1118 1221 1431
f 597 587 451 456
f 1543 488 502 1393
f 1435 944 762 1545
f 587 590 452 451
f 773 772 959 1544
f 1415 1115 1118 1416
f 1545 762 765 1546
f 1141 1144 1006 1005
f 1547 1039 1042 1548
f 1148 1151 1010 1009
f 867 875 736 729
f 1546 765 779 1394
f 864 867 729 728
f 778 871 732 779
f 1419 838 841 1420
f 1144 1152 1013 1006
f 1151 1141 1005 1010
f 1431 1221 1039 1547
f 1406 1236 1115 1415
f 1055 1148 1009 1056
f 1050 1049 1236 1406
f 1548 1042 1056 1395
f 1152 1045 1014 1013
f 1044 1049 1014 1045
f 1549 1550 145 144
f 1551 1552 147 146
f 1553 1554 149 148
f 1552 1555 150 147
f 152 151 1556 1557
f 153 154 1558 1559
f 1555 1558 154 150
f 151 145 1550 1556
f 1560 1561 156 155
f 1562 1553 148 157
f 157 158 1563 1562
f 1561 1564 159 156
f 1554 1565 160 149
f 158 161 1566 1563
f 1564 1549 144 159
f 1565 1551 146 160
f 1567 1568 1558 1555
f 1556 1550 1569 1570
f 1571 1572 1561 1560
f 1573 1574 1553 1562
f 1562 1563 1575 1573
f 1572 1576 1564 1561
f 1577 1578 1565 1554
f 1563 1566 1579 1575
f 1576 1580 1549 1564
f 1578 1581 1551 1565
f 1580 1569 1550 1549
f 1581 1582 1552 1551
f 1574 1577 1554 1553
f 1582 1567 1555 1552
f 1557 1556 1570 1583
f 1559 1558 1568 1584
f 1585 1586 1572 1571
f 1587 1588 1574 1573
f 1573 1575 1589 1587
f 1586 1590 1576 1572
f 1591 1592 1578 1577
f 1575 1579 1593 1589
f 1590 1594 1580 1576
f 1592 1595 1581 1578
f 1594 1596 1569 1580
f 1595 1597 1582 1581
f 1588 1591 1577 1574
f 1597 1598 1567 1582
f 1583 1570 1599 1600
f 1584 1568 1601 1602
f 1598 1601 1568 1567
f 1570 1569 1596 1599
f 1603 1604 1590 1586
f 1605 1606 1592 1591
f 1589 1593 1607 1608
f 1604 1609 1594 1590
f 1606 1610 1595 1592
f 1609 1611 1596 1594
f 1610 1612 1597 1595
f 1613 1605 1591 1588
f 1612 1614 1598 1597
f 1600 1599 1615 1616
f 1602 1601 1617 1618
f 1614 1617 1601 1598
f 1599 1596 1611 1615
f 1619 1603 1586 1585
f 1620 1613 1588 1587
f 1587 1589 1608 1620
f 1621 1622 1603 1619
f 1623 1624 1613 1620
f 1620 1608 1625 1623
f 1622 1626 1604 1603
f 1627 1628 1606 1605
f 1608 1607 1629 1625
f 1626 1630 1609 1604
f 1628 1631 1610 1606
f 1630 1632 1611 1609
f 1631 1633 1612 1610
f 1624 1627 1605 1613
f 1633 1634 1614 1612
f 1616 1615 1635 1636
f 1618 1617 1637 1638
f 1634 1637 1617 1614
f 1615 1611 1632 1635
f 1639 1640 1626 1622
f 1641 1642 1628 1627
f 1625 1629 1643 1644
f 1640 1645 1630 1626
f 1642 1646 1631 1628
f 1645 1647 1632 1630
f 1646 1648 1633 1631
f 1649 1641 1627 1624
f 1648 1650 1634 1633
f 1636 1635 1651 1652
f 1638 1637 1653 1654
f 1650 1653 1637 1634
f 1635 1632 1647 1651
f 1655 1639 1622 1621
f 1656 1649 1624 1623
f 1623 1625 1644 1656
f 1657 1658 1645 1640
f 1659 1660 1646 1642
f 1658 1661 1647 1645
f 1660 1662 1648 1646
f 1663 1664 1641 1649
f 1662 1665 1650 1648
f 1652 1651 1666 1667
f 1654 1653 1668 1669
f 1665 1668 1653 1650
f 1651 1647 1661 1666
f 1670 1671 1639 1655
f 1672 1663 1649 1656
f 1656 1644 1673 1672
f 1671 1657 1640 1639
f 1664 1659 1642 1641
f 1644 1643 1674 1673
f 1675 1676 1661 1658
f 1677 1678 1662 1660
f 1679 1680 1664 1663
f 1678 1681 1665 1662
f 1667 1666 1682 1683
f 1669 1668 1684 1685
f 1681 1684 1668 1665
f 1666 1661 1676 1682
f 1686 1687 1671 1670
f 1688 1679 1663 1672
f 1672 1673 1689 1688
f 1687 1690 1657 1671
f 1680 1691 1659 1664
f 1673 1674 1692 1689
f 1690 1675 1658 1657
f 1691 1677 1660 1659
f 1693 1694 1680 1679
f 1695 1696 1681 1678
f 1683 1682 1697 1698
f 1685 1684 1699 1700
f 1696 1699 1684 1681
f 1682 1676 1701 1697
f 1702 1703 1687 1686
f 1704 1693 1679 1688
f 1688 1689 1705 1704
f 1703 1706 1690 1687
f 1694 1707 1691 1680
f 1689 1692 1708 1705
f 1706 1709 1675 1690
f 1707 1710 1677 1691
f 1709 1701 1676 1675
f 1710 1695 1678 1677
f 1700 1699 1711 1712
f 1713 1711 1699 1696
f 1697 1701 1714 1715
f 1716 1717 1703 1702
f 1718 1719 1693 1704
f 1704 1705 1720 1718
f 1717 1721 1706 1703
f 1722 1723 1707 1694
f 1705 1708 1724 1720
f 1721 1725 1709 1706
f 1723 1726 1710 1707
f 1725 1714 1701 1709
f 1726 1727 1695 1710
f 1719 1722 1694 1693
f 1727 1713 1696 1695
f 1698 1697 1715 1728
f 1729 1730 1717 1716
f 1731 1732 1719 1718
f 1718 1720 1733 1731
f 1730 1734 1721 1717
f 1735 1736 1723 1722
f 1720 1724 1737 1733
f 1734 1738 1725 1721
f 1736 1739 1726 1723
f 1738 1740 1714 1725
f 1739 1741 1727 1726
f 1732 1735 1722 1719
f 1741 1742 1713 1727
f 1728 1715 1743 1744
f 1712 1711 1745 1746
f 1742 1745 1711 1713
f 1715 1714 1740 1743
f 1747 1748 1734 1730
f 1749 1750 1736 1735
f 1733 1737 1751 1752
f 1748 1753 1738 1734
f 1750 1754 1739 1736
f 1753 1755 1740 1738
f 1754 1756 1741 1739
f 1757 1749 1735 1732
f 1756 1758 1742 1741
f 1744 1743 1759 1760
f 1746 1745 1761 1762
f 1758 1761 1745 1742
f 1743 1740 1755 1759
f 1763 1747 1730 1729
f 1764 1757 1732 1731
f 1731 1733 1752 1764
f 1765 1766 1753 1748
f 1767 1768 1754 1750
f 1766 1769 1755 1753
f 1768 1770 1756 1754
f 1771 1772 1749 1757
f 1770 1773 1758 1756
f 1760 1759 1774 1775
f 1762 1761 1776 1777
f 1773 1776 1761 1758
f 1759 1755 1769 1774
f 1778 1779 1747 1763
f 1780 1771 1757 1764
f 1764 1752 1781 1780
f 1779 1765 1748 1747
f 1772 1767 1750 1749
f 1752 1751 1782 1781
f 1783 1784 1769 1766
f 1785 1786 1770 1768
f 1787 1788 1772 1771
f 1786 1789 1773 1770
f 1775 1774 1790 1791
f 1777 1776 1792 1793
f 1789 1792 1776 1773
f 1774 1769 1784 1790
f 1794 1795 1779 1778
f 1796 1787 1771 1780
f 1780 1781 1797 1796
f 1795 1798 1765 1779
f 1788 1799 1767 1772
f 1781 1782 1800 1797
f 1798 1783 1766 1765
f 1799 1785 1768 1767
f 1801 1802 1788 1787
f 1803 1804 1789 1786
f 1805 1806 1807 1808
f 1809 1810 1811 1812
f 1804 1810 1792 1789
f 1806 1813 1814 1807
f 1815 1816 1795 1794
f 1817 1801 1787 1796
f 1817 1818 1819 1820
f 1816 1821 1798 1795
f 1802 1822 1799 1788
f 1818 1823 1824 1819
f 1821 1825 1783 1798
f 1822 1826 1785 1799
f 1825 1813 1784 1783
f 1826 1803 1786 1785
f 1505 1499 1827 1539
f 1490 1509 1526 1828
f 1478 1535 1534 1475
f 1828 1532 1491 1490
f 1829 1827 1533 1830
f 1831 1828 1526 1832
f 1499 1496 1533 1827
f 1833 1402 1413 1834
f 1835 458 457 1427
f 185 1836 1442 176
f 458 185 184 1393
f 185 458 1835 1836
f 1402 1833 1837 1403
f 1537 1838 1403 1837
f 735 462 461 1394
f 1827 1829 1839 1539
f 462 735 1479 1527
f 1539 1469 1838 1537
f 1536 1833 1834 1840
f 1489 1536 1840 1494
f 1838 1012 1011 1403
f 739 1012 1838 1469
f 1012 739 738 1395
f 1833 1536 1537 1837
f 1841 1842 1482 1481
f 1843 1819 1824 1844
f 1845 1820 1819 1843
f 1283 1286 1846 1847
f 1848 1849 1357 1364
f 1850 1851 1328 1280
f 1325 1328 1851 1852
f 1853 1854 1363 1358
f 1849 1853 1358 1357
f 1852 1848 1364 1325
f 1854 1855 1362 1363
f 1280 1283 1847 1850
f 1855 1846 1286 1362
f 1856 1857 1855 1854
f 1857 1858 1846 1855
f 1850 1847 1859 1860
f 1861 1862 1849 1848
f 1847 1846 1858 1859
f 1860 1863 1851 1850
f 1852 1851 1863 1864
f 1864 1861 1848 1852
f 1865 1856 1854 1853
f 1862 1865 1853 1849
f 1866 1867 1856 1865
f 1868 1866 1865 1862
f 1867 1869 1857 1856
f 1869 1870 1858 1857
f 1860 1859 1871 1872
f 1873 1868 1862 1861
f 1859 1858 1870 1871
f 1872 1874 1863 1860
f 1864 1863 1874 1875
f 1875 1873 1861 1864
f 1876 1877 1874 1872
f 1875 1874 1877 1878
f 1878 1879 1873 1875
f 1880 1881 1867 1866
f 1882 1880 1866 1868
f 1881 1883 1869 1867
f 1883 1884 1870 1869
f 1872 1871 1885 1876
f 1879 1882 1868 1873
f 1871 1870 1884 1885
f 1876 1885 1886 1887
f 1888 1889 1882 1879
f 1885 1884 1890 1886
f 1887 1891 1877 1876
f 1878 1877 1891 1892
f 1892 1888 1879 1878
f 1893 1894 1881 1880
f 1889 1893 1880 1882
f 1894 1895 1883 1881
f 1895 1890 1884 1883
f 1896 1897 1895 1894
f 1897 1898 1890 1895
f 1887 1886 1899 1900
f 1901 1902 1889 1888
f 1886 1890 1898 1899
f 1900 1903 1891 1887
f 1892 1891 1903 1904
f 1904 1901 1888 1892
f 1905 1896 1894 1893
f 1902 1905 1893 1889
f 1906 1898 1897 1907
f 1908 1899 1898 1906
f 1909 1910 1911 1912
f 1910 1913 1914 1911
f 1913 1915 1916 1914
f 1912 1911 1917 1918
f 1918 1917 1919 1920
f 1920 1919 1921 1922
f 1923 1924 1925 1926
f 1922 1921 1927 1928
f 1928 1927 1929 1930
f 1931 1929 1932 1933
f 1934 1930 1929 1931
f 219 1543 1393 184
f 496 1546 1394 461
f 1540 1542 1543 219
f 1542 1540 1439 1425
f 1425 1439 1440 1424
f 1459 1455 1424 1440
f 1471 1935 1909 1472
f 1464 1463 1472 1483
f 1936 1900 1899 1908
f 1541 1545 1546 496
f 1545 1541 1398 1435
f 773 1548 1395 738
f 1544 1547 1548 773
f 1547 1544 1419 1431
f 1431 1419 1422 1430
f 1456 1449 1430 1422
f 1841 1937 1448 1474
f 1842 1841 1474 1485
f 1481 1457 1937 1841
f 1443 1445 1448 1937
f 1401 1434 1435 1398
f 1468 1467 1453 1452
f 1529 1507 1506 1938
f 1505 1488 1487 1504
f 1535 1939 1940 1525
f 1535 1478 1941 1939
f 1828 1831 1942 1532
f 1494 1840 1451 1454
f 1943 1903 1900 1936
f 1944 1503 1507 1945
f 1946 1947 1511 1510
f 1530 1945 1507 1529
f 1938 1948 1518 1529
f 1947 1949 1522 1511
f 1531 1950 1515 1514
f 1948 1528 1519 1518
f 1517 1946 1510 1514
f 1950 1520 1519 1515
f 1453 1467 1951 1952
f 1927 1953 1932 1929
f 1466 1480 1951 1467
f 1921 1954 1953 1927
f 1955 1904 1903 1943
f 1904 1955 1956 1901
f 1957 1902 1901 1956
f 1958 1905 1902 1957
f 1905 1958 1959 1896
f 1522 1949 1925 1924
f 1960 1961 1962 1963
f 1961 1960 1964 1965
f 1495 1494 1454 1966
f 1967 1923 1926 1968
f 1845 1969 1970 1971
f 1971 1970 1972 1973
f 1973 1972 1974 1975
f 1975 1974 1976 1977
f 1977 1976 1978 1979
f 1980 1981 1791 1805
f 1982 1775 1791 1981
f 1983 1744 1760 1984
f 1985 21 83
f 1986 24 23 1987 1988
f 1986 1989 28 27 1990
f 1990 27 99 1991
f 1991 99 121 1992
f 1993 143 110 1992
f 1993 136 152 1994
f 1994 152 1557 1995
f 1979 1978 1996 1997
f 1997 1996 1998 1999
f 21 1985 2000 22
f 22 2000 1987 23
f 1989 1986 1988
f 24 1986 1990 25
f 25 1990 1991 93
f 93 1991 1992 110
f 136 1993 1992 121
f 143 1993 1994 161
f 161 1994 1995 1566
f 1946 1969 2001 1947
f 1517 1970 1969 1946
f 1970 1517 1516 1972
f 1972 1516 1528 1974
f 1948 1976 1974 1528
f 1775 1982 1984 1760
f 1938 1978 1976 1948
f 1978 1938 1506 1996
f 2002 1812 1811 1999
f 1823 1980 2003 1824
f 1782 1982 1981 1800
f 85 84 2004
f 84 90 2005 2006 2004
f 90 122 2007 2005
f 122 137 2008 2007
f 137 153 2009 2008
f 1559 2010 2009 153
f 1584 2011 2010 1559
f 1602 2012 2011 1584
f 1618 2013 2012 1602
f 1638 2014 2013 1618
f 1654 2015 2014 1638
f 1669 2016 2015 1654
f 1685 2017 2016 1669
f 1700 2018 2017 1685
f 1712 2019 2018 1700
f 1746 2020 2019 1712
f 1762 2021 2020 1746
f 1777 2022 2021 1762
f 1793 2023 2022 1777
f 1809 2024 2023 1793
f 2025 2026 1812 2002
f 1502 1998 1996 1506
f 1839 1396 1469 1539
f 1937 1457 1444 1443
f 2027 1461 1460 1409
f 1829 1397 1396 1839
f 1397 1829 1830 1441
f 1401 1400 1446 1445
f 1533 1479 1441 1830
f 1468 1452 1450 1449
f 1409 1460 1428 1410
f 1479 1533 1532 1527
f 1942 1436 1527 1532
f 1831 1426 1436 1942
f 1426 1831 1832 1427
f 1465 1447 1446 1455
f 1422 1421 1444 1456
f 1404 1450 1452 1405
f 1526 1835 1427 1832
f 1440 1428 1460 1459
f 1835 1526 1525 1836
f 1940 1442 1836 1525
f 1939 1437 1442 1940
f 1404 1418 1417 1450
f 1437 1939 1941 1407
f 1478 1408 1407 1941
f 1408 1478 1477 1423
f 1476 2028 2029 1477
f 2027 2029 2028 2030
f 1405 1452 1451 1438
f 1840 1414 1438 1451
f 1414 1840 1834 1413
f 1423 1477 2029 1433
f 1462 1465 1455 1459
f 1458 1468 1449 1456
f 1434 1401 1445 1443
f 1896 1959 1907 1897
f 2031 1957 1956 2032
f 2033 1958 1957 2031
f 1534 1524 1538 2034
f 1924 2035 1523 1522
f 1501 2036 1998 1502
f 1923 1959 1958 2033
f 1501 1963 2037 2036
f 2038 1475 1534 2034
f 2034 1523 2035 2038
f 2035 2033 2031 2038
f 1475 2038 2031 1476
f 1538 1512 1523 2034
f 1508 1513 1512 1538
f 1931 1961 1965 1934
f 1961 1931 1933 1962
f 2039 2040 2037 1963
f 2041 2042 2040 2039
f 2043 2044 2042 2041
f 2045 2046 2044 2043
f 2047 2048 2046 2045
f 1968 2049 2048 2047
f 1926 2050 2049 1968
f 1925 2051 2050 1926
f 2039 1963 1962 2052
f 1916 1915 1967 1968
f 2041 2039 2052 2053
f 1962 1933 1932 2052
f 1919 2054 1954 1921
f 2054 1919 1917 2055
f 1953 2053 2052 1932
f 2053 1953 1954 2056
f 2056 1954 2054 2057
f 2057 2054 2055 2058
f 2043 2041 2053 2056
f 2057 2045 2043 2056
f 2045 2057 2058 2047
f 1917 1911 1914 2055
f 2055 1914 1916 2058
f 1916 1968 2047 2058
f 1454 1453 1952 1966
f 1493 1531 1513 1508
f 1531 1493 1492 1950
f 1950 1492 1497 1520
f 1498 1521 1520 1497
f 1504 1530 1521 1498
f 1487 1945 1530 1504
f 1486 1944 1945 1487
f 1952 1965 1964 1966
f 1965 1952 1951 1934
f 1480 1930 1934 1951
f 1930 1480 1482 1928
f 1842 1922 1928 1482
f 1922 1842 1485 1920
f 1920 1485 1484 1918
f 1483 1912 1918 1484
f 1912 1483 1472 1909
f 2027 1409 1433 2029
f 1470 2030 2028 1471
f 2027 2030 1470 1461
f 1476 2031 2032 2028
f 2006 2005 101 100
f 2005 2007 124 101
f 2007 2008 139 124
f 2008 2009 155 139
f 1960 1963 1501 1500
f 2010 1560 155 2009
f 2011 1571 1560 2010
f 2012 1585 1571 2011
f 2013 1619 1585 2012
f 2014 1621 1619 2013
f 2015 1655 1621 2014
f 2016 1670 1655 2015
f 2017 1686 1670 2016
f 2018 1702 1686 2017
f 2019 1716 1702 2018
f 2020 1729 1716 2019
f 2021 1763 1729 2020
f 2022 1778 1763 2021
f 2023 1794 1778 2022
f 2024 1815 1794 2023
f 1949 2059 2051 1925
f 1947 2001 2059 1949
f 1966 1964 2060 1495
f 1960 1500 2060 1964
f 1944 1486 1495 2060
f 1500 1503 1944 2060
f 2061 1698 1728 2062
f 2061 1708 1692 2063
f 2064 1667 1683 2063
f 2064 1674 1643 2065
f 2066 1636 1652 2065
f 2067 1616 1636 2066
f 2068 1600 1616 2067
f 2069 1583 1600 2068
f 1708 2061 2062 1724
f 1698 2061 2063 1683
f 1674 2064 2063 1692
f 1667 2064 2065 1652
f 1629 2066 2065 1643
f 1607 2067 2066 1629
f 1593 2068 2067 1607
f 1579 2069 2068 1593
f 2062 1728 1744 1983
f 1982 1782 1751 1984
f 1995 1557 1583 2069
f 1724 2062 1983 1737
f 1566 1995 2069 1579
f 1737 1983 1984 1751
f 2033 2035 1924 1923
f 1955 1935 2032 1956
f 1935 1955 1943 1909
f 1909 1943 1936 1910
f 1910 1936 1908 1913
f 1913 1908 1906 1915
f 1915 1906 1907 1967
f 1967 1907 1959 1923
f 2070 2003 1808 2071
f 2071 1808 1807 2072
f 2072 1807 1814 2073
f 2074 2046 2048 2073
f 2075 2044 2046 2074
f 2076 2042 2044 2075
f 2077 2040 2042 2076
f 2077 2078 2026 2025
f 1844 1824 2003 2070
f 2079 2080 1802 1801
f 2081 2082 1804 1803
f 1791 1790 1806 1805
f 1793 1792 1810 1809
f 2082 1811 1810 1804
f 1790 1784 1813 1806
f 2078 2083 1816 1815
f 1820 2079 1801 1817
f 1796 1797 1818 1817
f 2083 2084 1821 1816
f 2080 2085 1822 1802
f 1797 1800 1823 1818
f 2084 2086 1825 1821
f 2085 2087 1826 1822
f 2086 1814 1813 1825
f 2087 2081 1803 1826
f 2003 1980 1805 1808
f 1800 1981 1980 1823
f 1812 2026 2024 1809
f 2026 2078 1815 2024
f 2037 2025 2002 2036
f 1820 1845 1971 2079
f 2084 2075 2074 2086
f 1969 1845 1843 2001
f 2049 2072 2073 2048
f 2001 1843 1844 2059
f 2082 1997 1999 1811
f 2059 1844 2070 2051
f 2085 1975 1977 2087
f 2081 1979 1997 2082
f 2050 2071 2072 2049
f 2078 2077 2076 2083
f 2080 1973 1975 2085
f 2087 1977 1979 2081
f 2040 2077 2025 2037
f 2086 2074 2073 1814
f 2079 1971 1973 2080
f 2036 2002 1999 1998
f 2083 2076 2075 2084
f 2051 2070 2071 2050
f 2028 2032 1935 1471
f 1 3 30 41 40 42 46 47 51 56 57 69 60 59 71 79 85 2004 2006 100 102 104 107 113 116 103 97 26 28 1989 1988 1987 2000 1985 83 20 19 4
